<?xml version="1.0" encoding="utf-8"?>
<!-- Generator: Adobe Illustrator 24.1.1, SVG Export Plug-In . SVG Version: 6.00 Build 0)  -->
<svg version="1.1" id="Capa_1" xmlns="http://www.w3.org/2000/svg" xmlns:xlink="http://www.w3.org/1999/xlink" x="0px" y="0px"
	 viewBox="0 0 102.49 102.49" style="enable-background:new 0 0 102.49 102.49;" xml:space="preserve">
<style type="text/css">
	.st0{fill:#20252D;}
	.st1{fill:#FFFFFF;}
</style>
<g>
	<circle class="st0" cx="51.24" cy="51.24" r="46.08"/>
	<path class="st1" d="M58.09,53.04c0-0.77-0.17-1.5-0.49-2.18c-0.03-0.17-0.07-0.34-0.12-0.51l-3.4-8.43l-0.02-0.07
		c-1.19-3.54-2.88-6.82-7.17-6.82H30.48c-4.4,0-5.95,3.36-7.17,6.8l-3.56,8.45c-0.51,0.83-0.81,1.77-0.81,2.77v2.62
		c0,0.41,0.05,0.8,0.14,1.18c-0.09,0.23-0.14,0.48-0.14,0.74v7.8c0,1.14,0.93,2.07,2.07,2.07h4.3c1.14,0,2.07-0.93,2.07-2.07v-3.9
		H49.9v3.9c0,1.14,0.93,2.07,2.07,2.07h4.05c1.14,0,2.07-0.93,2.07-2.07v-7.8c0-0.26-0.05-0.51-0.14-0.74
		c0.09-0.38,0.14-0.78,0.14-1.19L58.09,53.04L58.09,53.04z M25.84,42.68c1.35-3.82,2.44-4.98,4.64-4.98h16.41
		c2.19,0,3.4,1.3,4.64,4.97l2.48,5.03c-0.81-0.3-1.7-0.47-2.64-0.47h-25.7c-0.84,0-1.65,0.14-2.39,0.38L25.84,42.68z M27.97,56.66
		h-4.53c-0.82,0-1.48-0.66-1.48-1.48c0-0.82,0.66-1.48,1.48-1.48h4.53c0.82,0,1.48,0.66,1.48,1.48C29.45,56,28.79,56.66,27.97,56.66
		z M43.98,56.37H33.44c-0.52,0-0.94-0.42-0.94-0.94c0-0.52,0.42-0.93,0.94-0.93h10.55c0.52,0,0.94,0.42,0.94,0.93
		C44.92,55.95,44.5,56.37,43.98,56.37z M53.49,56.66h-4.53c-0.82,0-1.48-0.66-1.48-1.48c0-0.82,0.66-1.48,1.48-1.48h4.53
		c0.82,0,1.48,0.66,1.48,1.48C54.97,56,54.31,56.66,53.49,56.66z"/>
	<path class="st1" d="M89.36,57.17c0-0.55-0.12-1.07-0.35-1.55c-0.02-0.12-0.05-0.24-0.08-0.37l-2.43-6.01l-0.02-0.05
		c-0.85-2.53-2.06-4.87-5.12-4.87H69.66c-3.14,0-4.25,2.4-5.12,4.85L62,55.19c-0.37,0.59-0.58,1.26-0.58,1.98v1.87
		c0,0.29,0.03,0.57,0.1,0.84c-0.06,0.16-0.1,0.34-0.1,0.53v5.56c0,0.82,0.66,1.48,1.48,1.48h3.07c0.81,0,1.48-0.66,1.48-1.48V63.2
		h16.07v2.78c0,0.82,0.66,1.48,1.48,1.48h2.89c0.82,0,1.48-0.66,1.48-1.48v-5.57c0-0.19-0.04-0.36-0.1-0.53
		c0.06-0.27,0.1-0.56,0.1-0.85L89.36,57.17L89.36,57.17z M66.34,49.77c0.97-2.72,1.74-3.56,3.31-3.56h11.71
		c1.56,0,2.43,0.93,3.31,3.55l1.77,3.59c-0.58-0.21-1.21-0.33-1.88-0.33H66.22c-0.6,0-1.18,0.1-1.71,0.27L66.34,49.77z M67.86,59.75
		h-3.24c-0.58,0-1.05-0.47-1.05-1.05c0-0.58,0.47-1.06,1.05-1.06h3.24c0.58,0,1.06,0.47,1.06,1.06
		C68.92,59.28,68.45,59.75,67.86,59.75z M79.29,59.54h-7.53c-0.37,0-0.67-0.3-0.67-0.67c0-0.37,0.3-0.67,0.67-0.67h7.53
		c0.37,0,0.67,0.3,0.67,0.67C79.96,59.24,79.66,59.54,79.29,59.54z M86.08,59.75h-3.24c-0.58,0-1.05-0.47-1.05-1.05
		c0-0.58,0.47-1.06,1.05-1.06h3.24c0.58,0,1.06,0.47,1.06,1.06C87.14,59.28,86.66,59.75,86.08,59.75z"/>
	<g>
		<path class="st1" d="M53.12,32.8c-0.18,0-0.36-0.05-0.52-0.15c-0.47-0.29-0.62-0.9-0.34-1.37l5.09-8.38
			c0.29-0.47,0.9-0.62,1.37-0.34c0.47,0.29,0.62,0.9,0.34,1.37l-5.09,8.38C53.78,32.63,53.45,32.8,53.12,32.8z"/>
	</g>
	<g>
		<path class="st1" d="M57.82,37.37c-0.27,0-0.54-0.11-0.74-0.32c-0.37-0.41-0.35-1.04,0.06-1.41l7.22-6.63
			c0.41-0.38,1.04-0.35,1.41,0.06c0.37,0.41,0.35,1.04-0.06,1.41l-7.22,6.63C58.3,37.29,58.06,37.37,57.82,37.37z"/>
	</g>
	<g>
		<path class="st1" d="M61.49,42.2c-0.45,0-0.86-0.3-0.97-0.76c-0.13-0.54,0.19-1.08,0.73-1.21l9.51-2.38
			c0.54-0.13,1.08,0.19,1.21,0.73c0.13,0.54-0.19,1.08-0.73,1.21l-9.51,2.38C61.65,42.19,61.57,42.2,61.49,42.2z"/>
	</g>
</g>
</svg>
