<?xml version="1.0" encoding="utf-8"?>
<!-- Generator: Adobe Illustrator 24.1.1, SVG Export Plug-In . SVG Version: 6.00 Build 0)  -->
<svg version="1.1" id="Capa_1" xmlns="http://www.w3.org/2000/svg" xmlns:xlink="http://www.w3.org/1999/xlink" x="0px" y="0px"
	 viewBox="0 0 102.49 102.49" style="enable-background:new 0 0 102.49 102.49;" xml:space="preserve">
<style type="text/css">
	.st0{fill:#20252D;}
	.st1{fill-rule:evenodd;clip-rule:evenodd;fill:#FFFFFF;}
</style>
<g>
	<circle class="st0" cx="51.24" cy="51.24" r="46.08"/>
	<g>
		<path class="st1" d="M50.34,32.64h2.27c0.44,0,0.79,0.36,0.79,0.79v2.51c0,0.44-0.36,0.79-0.79,0.79h-2.27
			c-0.44,0-0.79-0.36-0.79-0.79v-2.51C49.54,33,49.9,32.64,50.34,32.64L50.34,32.64z M27.1,67.27L27.1,67.27L27.1,67.27L48.97,45
			l-0.07-0.06c-1.21-1.11-1.55-2.86-1.05-3.27c0.14-0.11,0.48,0.95,1.54,1.52c0.29,0.16,0.63,0.29,1,0.35l0.62-0.63l0.21-0.21
			l0.21,0.21l0.52,0.53c0.36-0.12,0.71-0.31,1.04-0.6c1.28-1.37,0.81-3.24-0.56-3.82c-0.24-0.1-0.94-0.37-1.37-0.66
			c-0.4-0.27-0.55-0.55-0.56-0.84h2.09c0.29,0,0.56-0.08,0.8-0.22c0.97,0.49,1.99,0.81,2.67,2.46c0.52,1.27,0.42,2.76-0.26,3.95
			c-0.46,0.81-1.12,1.39-1.85,1.76l21.39,21.78l0,0h0.04v7.05H27.1V67.27L27.1,67.27z M27.94,67.27h46.58L53.36,45.74
			c-1.32,0.45-2.8,0.3-3.9-0.38L27.94,67.27L27.94,67.27z M51.26,43.59l-0.03-0.03l-0.04,0.04L51.26,43.59L51.26,43.59z
			 M70.76,68.71c-1.15,0-2.08,0.93-2.08,2.08c0,1.15,0.93,2.08,2.08,2.08c1.15,0,2.08-0.93,2.08-2.08
			C72.84,69.64,71.91,68.71,70.76,68.71L70.76,68.71z M51.36,68.71c-1.15,0-2.08,0.93-2.08,2.08c0,1.15,0.93,2.08,2.08,2.08
			c1.15,0,2.08-0.93,2.08-2.08C53.45,69.64,52.51,68.71,51.36,68.71L51.36,68.71z M41.52,68.71c-1.15,0-2.08,0.93-2.08,2.08
			c0,1.15,0.93,2.08,2.08,2.08c1.15,0,2.08-0.93,2.08-2.08C43.6,69.64,42.67,68.71,41.52,68.71L41.52,68.71z M31.97,68.71
			c-1.15,0-2.08,0.93-2.08,2.08c0,1.15,0.93,2.08,2.08,2.08c1.15,0,2.08-0.93,2.08-2.08C34.05,69.64,33.12,68.71,31.97,68.71
			L31.97,68.71z M61.21,68.71c-1.15,0-2.08,0.93-2.08,2.08c0,1.15,0.93,2.08,2.08,2.08c1.15,0,2.08-0.93,2.08-2.08
			C63.29,69.64,62.36,68.71,61.21,68.71L61.21,68.71z M52.4,25.74v6.09h-1.86v-6.09H52.4z"/>
	</g>
</g>
</svg>
