<?xml version="1.0" encoding="utf-8"?>
<!-- Generator: Adobe Illustrator 24.1.1, SVG Export Plug-In . SVG Version: 6.00 Build 0)  -->
<svg version="1.1" id="Capa_1" xmlns="http://www.w3.org/2000/svg" xmlns:xlink="http://www.w3.org/1999/xlink" x="0px" y="0px"
	 viewBox="0 0 102.49 102.49" style="enable-background:new 0 0 102.49 102.49;" xml:space="preserve">
<style type="text/css">
	.st0{fill:#20252D;}
	.st1{fill:#FFFFFF;}
</style>
<g>
	<circle class="st0" cx="51.24" cy="51.24" r="46.08"/>
	<g>
		<path class="st1" d="M51.25,28.67c-12.47,0-22.58,10.11-22.58,22.58c0,12.47,10.11,22.58,22.58,22.58
			c12.46,0,22.57-10.11,22.57-22.58C73.82,38.78,63.72,28.67,51.25,28.67z M51.25,60.26c-4.98,0-9.02-4.04-9.02-9.02
			c0-4.97,4.04-9.02,9.02-9.02c4.97,0,9.01,4.05,9.01,9.02C60.26,56.22,56.22,60.26,51.25,60.26z M55.36,41.95
			c-1.27-0.98-4.11-1.07-4.11-1.07V30.24c5.43-0.49,9.29,2.44,9.29,2.44L55.36,41.95z"/>
		<path class="st1" d="M51.25,43.18c-4.45,0-8.07,3.62-8.07,8.06c0,4.45,3.62,8.06,8.07,8.06c4.44,0,8.06-3.62,8.06-8.06
			C59.31,46.8,55.69,43.18,51.25,43.18z M51.25,55.25c-2.22,0-4.01-1.79-4.01-4.01c0-2.21,1.79-4,4.01-4c2.21,0,4,1.79,4,4
			C55.25,53.46,53.46,55.25,51.25,55.25z"/>
	</g>
</g>
</svg>
