<?xml version="1.0" encoding="utf-8"?>
<!-- Generator: Adobe Illustrator 24.1.1, SVG Export Plug-In . SVG Version: 6.00 Build 0)  -->
<svg version="1.1" id="Capa_1" xmlns="http://www.w3.org/2000/svg" xmlns:xlink="http://www.w3.org/1999/xlink" x="0px" y="0px"
	 viewBox="0 0 102.49 102.49" style="enable-background:new 0 0 102.49 102.49;" xml:space="preserve">
<style type="text/css">
	.st0{fill:#20252D;}
	.st1{fill:#FFFFFF;}
</style>
<g>
	<circle class="st0" cx="51.24" cy="51.24" r="46.08"/>
	<path class="st1" d="M66.25,48.76L53.73,36.24l3.64-3.64l12.53,12.52L66.25,48.76z M71.43,31.07c-1.9-1.9-5.39-1.49-7.8,0.91
		L61.7,33.9c-0.1,0.1-0.18,0.22-0.28,0.33l6.82,6.83c0.11-0.1,0.23-0.18,0.33-0.29l1.92-1.91C72.91,36.46,73.33,32.96,71.43,31.07z
		 M32.66,62.98l0.05,0.05l-2.85,7.6c0,0,0.09,0.96,0.62,1.5c0.54,0.54,1.37,0.49,1.37,0.49l7.61-2.84l0.05,0.05L62.24,47.1
		l-6.85-6.84L32.66,62.98z"/>
</g>
</svg>
