<?xml version="1.0" encoding="utf-8"?>
<!-- Generator: Adobe Illustrator 24.1.1, SVG Export Plug-In . SVG Version: 6.00 Build 0)  -->
<svg version="1.1" id="Capa_1" xmlns="http://www.w3.org/2000/svg" xmlns:xlink="http://www.w3.org/1999/xlink" x="0px" y="0px"
	 viewBox="0 0 102.49 102.49" style="enable-background:new 0 0 102.49 102.49;" xml:space="preserve">
<style type="text/css">
	.st0{fill:#20252D;}
	.st1{fill:#FFFFFF;}
</style>
<g>
	<circle class="st0" cx="51.24" cy="51.24" r="46.08"/>
	<path class="st1" d="M62.7,54.76h-2.23c-0.42-2.22-1.32-4.32-2.63-6.15l1.55-1.55c0.15-0.15,0.24-0.35,0.24-0.57
		c0-0.21-0.08-0.42-0.24-0.57l-2.7-2.7c-0.31-0.32-0.82-0.32-1.14,0l-1.59,1.59c-1.82-1.24-3.88-2.09-6.04-2.47v-2.26
		c0-0.44-0.36-0.8-0.8-0.8h-3.82c-0.44,0-0.81,0.36-0.81,0.8v2.26c-2.18,0.39-4.25,1.24-6.08,2.5l-1.55-1.55
		c-0.32-0.32-0.83-0.32-1.14,0l-2.7,2.7c-0.15,0.15-0.24,0.36-0.24,0.57c0,0.21,0.09,0.42,0.24,0.57l1.52,1.52
		c-1.3,1.83-2.19,3.91-2.6,6.11H27.9c-0.44,0-0.8,0.36-0.8,0.8v3.82c0,0.45,0.36,0.8,0.8,0.8h1.96c0.37,2.22,1.23,4.34,2.5,6.21
		l-1.42,1.42c-0.31,0.31-0.31,0.83,0,1.14l2.7,2.7c0.15,0.15,0.36,0.24,0.57,0.24c0.21,0,0.42-0.09,0.57-0.24l1.38-1.38
		c1.88,1.35,4.04,2.26,6.32,2.66v1.93c0,0.44,0.36,0.81,0.81,0.81h3.82c0.44,0,0.8-0.36,0.8-0.81v-1.93c2.26-0.4,4.41-1.3,6.28-2.64
		l1.43,1.43c0.3,0.3,0.84,0.3,1.13,0l2.7-2.7c0.32-0.31,0.32-0.83,0-1.14l-1.45-1.45c1.3-1.88,2.16-4.01,2.53-6.25h2.16
		c0.44,0,0.8-0.36,0.8-0.8v-3.82C63.51,55.11,63.15,54.76,62.7,54.76z M45.31,65.95c-4.69,0-8.48-3.8-8.48-8.49
		c0-4.69,3.8-8.48,8.48-8.48c4.68,0,8.48,3.8,8.48,8.48C53.79,62.15,49.99,65.95,45.31,65.95z M48.52,57.47
		c0,1.78-1.44,3.22-3.22,3.22s-3.22-1.44-3.22-3.22c0-1.78,1.44-3.22,3.22-3.22S48.52,55.69,48.52,57.47z M75,39.44l-1.08-0.46
		c0.29-1.27,0.3-2.59,0.02-3.86l1.15-0.46c0.24-0.09,0.35-0.36,0.26-0.6l-0.81-2.03c-0.09-0.24-0.36-0.35-0.6-0.25l-1.18,0.47
		c-0.69-1.09-1.61-2.02-2.7-2.71l0.5-1.15c0.05-0.11,0.05-0.24,0.01-0.35c-0.04-0.11-0.13-0.21-0.25-0.25l-2-0.87
		c-0.23-0.1-0.51,0.01-0.61,0.24l-0.51,1.19c-1.22-0.28-2.5-0.29-3.72-0.04L63,27.1c-0.1-0.24-0.37-0.35-0.6-0.26l-2.03,0.81
		c-0.24,0.09-0.35,0.36-0.26,0.6l0.48,1.2c-1.07,0.66-1.99,1.56-2.7,2.61l-1.15-0.5c-0.23-0.1-0.5,0.01-0.6,0.24l-0.87,2
		c-0.05,0.12-0.05,0.24,0,0.35c0.05,0.11,0.13,0.2,0.25,0.25l1.13,0.48c-0.3,1.24-0.34,2.54-0.09,3.79l-1.08,0.43
		c-0.24,0.09-0.35,0.36-0.26,0.59l0.81,2.03c0.09,0.24,0.36,0.35,0.6,0.26l1.04-0.41c0.67,1.1,1.57,2.04,2.64,2.77l-0.46,1.06
		c-0.1,0.23,0.01,0.5,0.24,0.6l2,0.87c0.12,0.05,0.24,0.05,0.35,0c0.11-0.05,0.2-0.13,0.25-0.25l0.44-1.02
		c1.29,0.32,2.63,0.34,3.92,0.08l0.41,1.02c0.09,0.24,0.36,0.35,0.6,0.26l2.03-0.81c0.24-0.09,0.35-0.36,0.26-0.6l-0.41-1.02
		c1.12-0.69,2.07-1.62,2.78-2.72l1.05,0.45c0.23,0.1,0.51-0.02,0.61-0.24l0.87-2C75.35,39.81,75.24,39.54,75,39.44z M67.08,41.4
		c-2.49,0.99-5.31-0.23-6.29-2.71c-0.99-2.49,0.23-5.3,2.71-6.29c2.49-0.99,5.31,0.22,6.3,2.71C70.78,37.59,69.57,40.41,67.08,41.4z
		 M67,36.22c0.38,0.94-0.09,2.01-1.03,2.39c-0.95,0.37-2.01-0.09-2.39-1.03c-0.37-0.94,0.09-2.01,1.03-2.39
		C65.55,34.81,66.62,35.27,67,36.22z"/>
</g>
</svg>
