<?xml version="1.0" encoding="utf-8"?>
<!-- Generator: Adobe Illustrator 24.1.1, SVG Export Plug-In . SVG Version: 6.00 Build 0)  -->
<svg version="1.1" id="Capa_1" xmlns="http://www.w3.org/2000/svg" xmlns:xlink="http://www.w3.org/1999/xlink" x="0px" y="0px"
	 viewBox="0 0 102.49 102.49" style="enable-background:new 0 0 102.49 102.49;" xml:space="preserve">
<style type="text/css">
	.st0{fill:#20252D;}
	.st1{fill:#FFFFFF;}
</style>
<g>
	<circle class="st0" cx="51.24" cy="51.24" r="46.08"/>
	<g>
		<path class="st1" d="M48.38,44.58L25.1,66.48c-0.13,0.13-0.21,0.31-0.22,0.49c0,0.19,0.07,0.37,0.2,0.5l3.72,3.72
			c0.13,0.13,0.31,0.21,0.5,0.2c0.19,0,0.36-0.08,0.49-0.22l21.9-23.27c0.25-0.27,0.25-0.7-0.02-0.96l-2.35-2.35
			C49.07,44.33,48.65,44.33,48.38,44.58z"/>
		<path class="st1" d="M70.75,70.71c-0.14-0.14-0.33-0.22-0.53-0.22H47.18c-0.2,0-0.39,0.08-0.53,0.22
			c-0.14,0.14-0.22,0.33-0.22,0.53v2.57H43.8v2.57h-4.01v2.57H77.6v-2.57H73.6v-2.57h-2.63v-2.57
			C70.97,71.04,70.89,70.85,70.75,70.71z"/>
		<path class="st1" d="M44.95,37.52L58.33,50.9l9.16-9.16c0.09-0.09,0.19-0.16,0.29-0.24L54.35,28.07c-0.08,0.1-0.15,0.2-0.24,0.29
			L44.95,37.52z"/>
		<path class="st1" d="M67.78,41.5c-0.1,0.08-0.2,0.15-0.29,0.24l-9.16,9.16l-0.13,0.13c-1.1,1.1-1.1,2.88,0,3.99
			c1.1,1.1,2.88,1.1,3.98,0l9.29-9.29c1.1-1.1,1.1-2.88,0-3.98C70.47,40.73,68.89,40.66,67.78,41.5z"/>
		<path class="st1" d="M50.13,24.38l-9.29,9.29c-1.1,1.1-1.1,2.88,0,3.99c1.1,1.1,2.88,1.1,3.98,0l0.13-0.13l9.16-9.16
			c0.09-0.09,0.16-0.19,0.24-0.29c0.84-1.1,0.77-2.68-0.24-3.69C53.01,23.28,51.23,23.28,50.13,24.38z"/>
	</g>
</g>
</svg>
