<?xml version="1.0" encoding="utf-8"?>
<!-- Generator: Adobe Illustrator 24.1.1, SVG Export Plug-In . SVG Version: 6.00 Build 0)  -->
<svg version="1.1" id="Capa_1" xmlns="http://www.w3.org/2000/svg" xmlns:xlink="http://www.w3.org/1999/xlink" x="0px" y="0px"
	 viewBox="0 0 36.34 28.76" style="enable-background:new 0 0 36.34 28.76;" xml:space="preserve">
<style type="text/css">
	.st0{fill:url(#SVGID_1_);}
</style>
<linearGradient id="SVGID_1_" gradientUnits="userSpaceOnUse" x1="82.559" y1="87.2031" x2="121.9011" y2="87.2031" gradientTransform="matrix(0.9502 0.3116 -0.3116 0.9502 -44.5014 -97.9684)">
	<stop  offset="0" style="stop-color:#281301"/>
	<stop  offset="1.403495e-04" style="stop-color:#291301"/>
	<stop  offset="8.161318e-03" style="stop-color:#482707"/>
	<stop  offset="0.0171" style="stop-color:#63370B"/>
	<stop  offset="0.0273" style="stop-color:#79440F"/>
	<stop  offset="0.0393" style="stop-color:#8A4E12"/>
	<stop  offset="0.0541" style="stop-color:#955614"/>
	<stop  offset="0.0748" style="stop-color:#9C5A16"/>
	<stop  offset="0.1325" style="stop-color:#9E5B16"/>
	<stop  offset="0.2907" style="stop-color:#FAD6A1"/>
	<stop  offset="0.3798" style="stop-color:#F9C57B"/>
	<stop  offset="0.4735" style="stop-color:#F7BA5F"/>
	<stop  offset="0.5603" style="stop-color:#A3683C"/>
	<stop  offset="0.7523" style="stop-color:#995E37"/>
	<stop  offset="0.8092" style="stop-color:#F5B95E"/>
	<stop  offset="1" style="stop-color:#6B3606"/>
</linearGradient>
<path class="st0" d="M14.57,2.92l-1.45,1.24c0,0-5.21,3.75-0.05,14.02l0,0c0.01,0.02,0.02,0.03,0.02,0.05
	c0.01,0.02,0.01,0.03,0.02,0.05l0,0c5.23,10.24,11.33,8.26,11.33,8.26l1.86-0.44c1.11-0.38,1.63-1.65,1.1-2.69l-1.24-2.46
	c-0.43-0.85-1.43-1.26-2.33-0.95l-2.38,0.61c0,0-1.58,0.35-4.07-4.55c-2.47-4.91-1.26-5.98-1.26-5.98l1.9-1.56
	c0.78-0.55,1.05-1.59,0.61-2.45l-1.24-2.46C16.86,2.59,15.53,2.25,14.57,2.92z"/>
</svg>
