<?xml version="1.0" encoding="utf-8"?>
<!-- Generator: Adobe Illustrator 24.1.1, SVG Export Plug-In . SVG Version: 6.00 Build 0)  -->
<svg version="1.1" id="Capa_1" xmlns="http://www.w3.org/2000/svg" xmlns:xlink="http://www.w3.org/1999/xlink" x="0px" y="0px"
	 viewBox="0 0 46 46" style="enable-background:new 0 0 46 46;" xml:space="preserve">
<style type="text/css">
	.st0{fill:#262626;}
	.st1{fill:#E39D39;}
</style>
<path class="st0" d="M41.6,46H4.4C2,46,0,44,0,41.6V4.4C0,2,2,0,4.4,0h37.1C44,0,46,2,46,4.4v37.1C46,44,44,46,41.6,46z"/>
<path class="st1" d="M28.1,20.2C27.9,20,27.8,20,27.6,20h-9.3c-0.2,0-0.3,0.1-0.5,0.2c-0.1,0.1-0.2,0.3-0.2,0.5s0.1,0.3,0.2,0.5
	l4.6,4.6c0.1,0.1,0.3,0.2,0.5,0.2s0.3-0.1,0.5-0.2l4.6-4.6c0.1-0.1,0.2-0.3,0.2-0.5S28.2,20.3,28.1,20.2L28.1,20.2z"/>
</svg>
