<?xml version="1.0" encoding="utf-8"?>
<!-- Generator: Adobe Illustrator 24.1.1, SVG Export Plug-In . SVG Version: 6.00 Build 0)  -->
<svg version="1.1" id="Capa_1" xmlns="http://www.w3.org/2000/svg" xmlns:xlink="http://www.w3.org/1999/xlink" x="0px" y="0px"
	 viewBox="0 0 271 174" style="enable-background:new 0 0 271 174;" xml:space="preserve">
<style type="text/css">
	.st0{fill:#FFFFFF;}
</style>
<g>
	<path class="st0" d="M22,119.3c-0.9,1-1.4,2.1-1.4,3.5s0.4,2.5,1.4,3.5c1,0.9,2.1,1.4,3.5,1.4h7.4c0.6,0,1.2,0.2,1.7,0.7
		c0.5,0.4,0.7,1,0.7,1.7c0,0.6-0.2,1.2-0.7,1.7c-0.4,0.5-1,0.7-1.7,0.7H20.6v2.5h12.3c1.4,0,2.5-0.4,3.5-1.4c0.9-1,1.4-2.1,1.4-3.5
		c0-1.4-0.4-2.5-1.4-3.5c-1-0.9-2.1-1.4-3.5-1.4h-7.4c-0.6,0-1.2-0.2-1.7-0.7c-0.5-0.4-0.7-1-0.7-1.7c0-0.6,0.2-1.2,0.7-1.7
		c0.4-0.5,1-0.7,1.7-0.7h12.3v-2.5H25.5C24.2,117.9,23,118.4,22,119.3z"/>
	<path class="st0" d="M43.6,130.9c-0.9-0.9-1.5-1.9-1.7-3.1h12.2v-2.5H41.9c0.2-1.1,0.8-2.2,1.7-3.1c1.2-1.2,2.7-1.8,4.4-1.8h8.6
		v-2.5h-8.7c-2.3,0-4.4,0.8-6,2.6c-1.7,1.7-2.5,3.7-2.5,6.1c0,2.4,0.8,4.4,2.5,6.1c1.7,1.7,3.7,2.5,6.1,2.5h8.6v-2.5H48
		C46.3,132.7,44.8,132.1,43.6,130.9z"/>
	<path class="st0" d="M66.6,125.5v2.5h6.2v4.9h-6.2c-1.7,0-3.2-0.6-4.4-1.8c-1.2-1.2-1.8-2.7-1.8-4.4s0.6-3.2,1.8-4.4
		s2.7-1.8,4.4-1.8h8.6V118h-8.6c-2.4,0-4.4,0.8-6.1,2.5s-2.5,3.7-2.5,6.1c0,2.4,0.8,4.4,2.5,6.1c1.7,1.7,3.7,2.5,6.1,2.5h8.6v-9.7
		H66.6z"/>
	<path class="st0" d="M91.6,126.5c0,1.7-0.6,3.2-1.8,4.4c-1.2,1.2-2.7,1.8-4.4,1.8s-3.2-0.6-4.4-1.8c-1.2-1.2-1.8-2.7-1.8-4.4v-8.6
		h-2.5v8.6c0,2.4,0.8,4.5,2.7,6.1c1.7,1.7,3.7,2.5,6.1,2.5c2.4,0,4.4-0.8,6.1-2.5c1.7-1.7,2.5-3.7,2.5-6.1v-8.6h-2.5V126.5z"/>
	<path class="st0" d="M111.2,126.3c0.9-1,1.4-2.1,1.4-3.5c0-1.4-0.4-2.5-1.4-3.5c-1-0.9-2.1-1.4-3.5-1.4H95.4l-0.1,17.3h2.5v-7.4
		h9.9c0.6,0,1.2,0.2,1.7,0.7c0.5,0.4,0.7,1,0.7,1.7v4.9h2.5v-4.9c0-1.4-0.4-2.5-1.4-3.5c-0.1-0.1-0.1-0.1-0.2-0.2
		C111.1,126.4,111.1,126.4,111.2,126.3z M109.5,124.6c-0.4,0.5-1,0.7-1.7,0.7h-9.9v-4.8h9.9c0.6,0,1.2,0.2,1.7,0.7
		c0.5,0.4,0.7,1,0.7,1.7C110.2,123.5,110,124.1,109.5,124.6z"/>
	<path class="st0" d="M122.7,117.9c-2.4,0-4.4,0.8-6.1,2.5c-1.7,1.7-2.5,3.7-2.5,6.1s0.8,4.4,2.5,6.1c1.7,1.7,3.7,2.5,6.1,2.5
		s4.4-0.8,6.1-2.5c1.7-1.7,2.5-3.7,2.5-6.1c0-2.4-0.8-4.4-2.5-6.1C127.2,118.7,125.1,117.9,122.7,117.9z M127.1,131
		c-1.2,1.2-2.7,1.8-4.4,1.8s-3.2-0.6-4.4-1.8s-1.8-2.7-1.8-4.4c0-1.7,0.6-3.2,1.8-4.4s2.7-1.8,4.4-1.8s3.2,0.6,4.4,1.8
		c1.2,1.2,1.8,2.7,1.8,4.4C128.9,128.3,128.3,129.8,127.1,131z"/>
	<path class="st0" d="M134.2,119.3c-0.9,1-1.4,2.1-1.4,3.5s0.4,2.5,1.4,3.5c1,0.9,2.1,1.4,3.5,1.4h7.4c0.6,0,1.2,0.2,1.7,0.7
		c0.5,0.4,0.7,1,0.7,1.7c0,0.6-0.2,1.2-0.7,1.7c-0.4,0.5-1,0.7-1.7,0.7h-12.3v2.5h12.3c1.4,0,2.5-0.4,3.5-1.4c0.9-1,1.4-2.1,1.4-3.5
		c0-1.4-0.4-2.5-1.4-3.5c-1-0.9-2.1-1.4-3.5-1.4h-7.4c-0.6,0-1.2-0.2-1.7-0.7c-0.5-0.4-0.7-1-0.7-1.7c0-0.6,0.2-1.2,0.7-1.7
		c0.4-0.5,1-0.7,1.7-0.7H150v-2.5h-12.3C136.4,117.9,135.2,118.4,134.2,119.3z"/>
	<path class="st0" d="M170.2,117.9h-12.3l-0.1,17.2h2.5v-7.4h9.9c1.4,0,2.5-0.4,3.5-1.4c0.9-1,1.4-2.1,1.4-3.5
		c0-1.4-0.4-2.5-1.4-3.5C172.7,118.4,171.6,117.9,170.2,117.9z M172,124.6c-0.4,0.5-1,0.7-1.7,0.7h-9.9v-4.8h9.9
		c0.6,0,1.2,0.2,1.7,0.7c0.5,0.4,0.7,1,0.7,1.7C172.7,123.5,172.5,124.1,172,124.6z"/>
	<path class="st0" d="M191.5,126.5c0,1.7-0.6,3.2-1.8,4.4c-1.2,1.2-2.7,1.8-4.4,1.8c-1.7,0-3.2-0.6-4.4-1.8
		c-1.2-1.2-1.8-2.7-1.8-4.4v-8.6h-2.5v8.6c0,2.4,0.9,4.5,2.7,6.1c1.7,1.7,3.7,2.5,6.1,2.5c2.4,0,4.4-0.8,6.1-2.5s2.5-3.7,2.5-6.1
		v-8.6h-2.5V126.5z"/>
	<path class="st0" d="M218.6,117.9c-2.4,0-4.4,0.8-6.1,2.5c-0.5,0.5-0.9,1-1.3,1.6c-0.4-0.6-0.8-1.1-1.3-1.6
		c-1.7-1.7-3.7-2.5-6.1-2.5c-2.4,0-4.4,0.8-6.1,2.5c-1.7,1.7-2.5,3.7-2.5,6.1v8.6h2.5v-8.6c0-1.7,0.6-3.2,1.8-4.4
		c1.2-1.2,2.7-1.8,4.4-1.8s3.2,0.6,4.4,1.8c1.2,1.2,1.8,2.7,1.8,4.4h-0.3v8.6h2.5v-8.6c0-1.7,0.6-3.2,1.8-4.4
		c1.2-1.2,2.7-1.8,4.4-1.8s3.2,0.6,4.4,1.8c1.2,1.2,1.8,2.7,1.8,4.4v8.6h2.5v-8.6c0-2.4-0.8-4.4-2.5-6.1
		C223,118.7,221,117.9,218.6,117.9z"/>
	<path class="st0" d="M237.4,118c-2.4,0-4.4,0.8-6.1,2.5c-1.7,1.7-2.5,3.7-2.5,6.1v8.6h2.5V129h12.2v6.2h2.5v-8.6
		c0-2.4-0.8-4.4-2.5-6.1S239.8,118,237.4,118z M231.3,126.5c0-1.7,0.6-3.2,1.8-4.4c1.2-1.2,2.7-1.8,4.4-1.8s3.2,0.6,4.4,1.8
		c1.2,1.2,1.8,2.7,1.8,4.4H231.3z"/>
	<path class="st0" d="M142.6,63.1v-9.3c7-1.3,25.5-4.1,25.5-19.9c0-8.6-6.6-15.5-14.7-15.5h-15h-6.7h-2.1h-4.4v0.4
		c2.4,0,4.4,2,4.4,4.4v6.1c-6-2-12.3-1.9-18.2,0.4c-2.7,1-4.9,2.9-6.8,5c-4.2,4.8-4.6,12-1.6,17.6c3.2,5.9,9.4,9.9,15,13.1
		c5.5,3.2,11.1,6.7,13.6,12.9c1,2.4,1.5,5.4,1.5,8c0.1,5.1-3,10.7-7,13.8c1.2-0.4,2.5-0.7,3.7-1.1c1-0.4,2.1-0.8,3.1-1.3
		c2-1.1,3.9-2.4,5.5-3.9c0.9-0.8,1.8-1.8,2.6-2.7c5.7-6.8,6-17.1,1.1-24.3c-4.5-6.7-12-10.3-18.9-14c-3.9-2.1-7.9-4.3-10.3-8.1
		c-2-3.2-1.8-7.7,1.4-10.2c4.5-3.5,10.3-2.4,15.3-1.1v19.9C134.4,55.9,139.2,58.9,142.6,63.1z M142.6,18.9h2.3h0.9
		c4.7,0,8.4,6.7,8.4,15c0,8.7-3.1,15.4-11.6,19.2V18.9z"/>
	<path class="st0" d="M249.2,132.7c-0.7,0-1.2,0.5-1.2,1.2c0,0.7,0.5,1.2,1.2,1.2s1.2-0.5,1.2-1.2
		C250.4,133.2,249.9,132.7,249.2,132.7z"/>
	<path class="st0" d="M161.1,88.9c-0.2,0.1-0.3,0.3-0.2,0.5c0.1,0.2,0.3,0.3,0.5,0.2c0.1,0,2.2-0.7,3.3,1.5c0,0.1,0.2,0.2,0.3,0.2
		s0.1,0,0.2,0c0.2-0.1,0.3-0.3,0.2-0.5C164,88,161.4,88.9,161.1,88.9z"/>
	<path class="st0" d="M173.3,88.9c0,0-2.8-0.9-4.2,1.9c-0.1,0.2,0,0.4,0.2,0.5c0.1,0,0.1,0,0.2,0s0.3-0.1,0.3-0.2
		c1.1-2.2,3.2-1.6,3.3-1.5c0.2,0.1,0.4,0,0.5-0.2C173.6,89.2,173.5,89,173.3,88.9z"/>
	<path class="st0" d="M176.7,85.2c-0.1-0.1-0.2-0.2-0.3-0.2c-0.1-0.1-2.5-0.5-4.3,1.2c-0.6-0.5-2.1-1.6-4.8-1.6
		c-2.6,0-4.2,1.1-4.8,1.6c-1.8-1.6-4.2-1.2-4.3-1.2c-0.1,0-0.2,0.1-0.3,0.2c-1.4,3,0.6,6.2,1.1,6.9c-1.2,5.7,3,9,3.4,9.3
		c0.5,0.6,1.4,1.1,2.3,1.2c0.3,0.3,1.2,1.1,2.6,1.1c1.4,0,2.3-0.8,2.6-1.1c0.9-0.1,1.8-0.6,2.3-1.2c0.4-0.3,4.6-3.6,3.4-9.3
		C176.1,91.3,178.1,88.2,176.7,85.2z M167.3,102.9c-0.7,0-1.2-0.2-1.5-0.5c0.6-0.2,1.1-0.6,1.5-1.3c0.4,0.7,0.9,1.1,1.5,1.3
		C168.5,102.7,168,102.9,167.3,102.9z M166.3,99c-0.9-0.1-1.1-0.4-1.1-0.5c-0.1-0.2,0-0.3,0.1-0.4c0.1,0,0.2-0.1,0.3-0.1
		c0.1,0,0.1,0,0.2,0c1,0.5,1.4,0.5,1.5,0.5c0.1,0,0.5,0,1.5-0.5c0.3-0.1,0.4,0,0.5,0.1c0.1,0.1,0.1,0.2,0.1,0.4
		c-0.1,0.1-0.2,0.4-1.2,0.5c0,0-0.6,0.1-0.9,0.5C166.9,99.1,166.4,98.9,166.3,99z M172.9,99.8c-0.1-0.6-0.6-1.1-1-1.5
		c0.4-0.8-0.2-1.5-0.7-2.2c-0.3-0.3-0.5-0.6-0.7-0.9c-0.3-0.6-0.5-1.2-0.5-1.7c0.4,0.1,0.8,0.2,1.2,0.2c0.5,0,0.8-0.1,1.1-0.3
		c0.5-0.4,0.7-0.9,0.8-1.4c0.1,0,0.2,0.1,0.3,0.2c0.1,0.2,0.4,0.2,0.5,0c0.2-0.1,0.2-0.4,0-0.5c-0.3-0.3-0.7-0.5-1-0.6h-0.1
		c-0.9-0.3-1.8-0.2-2.6,0.4c-0.9,0.7-1.4,2.2-0.3,4.1c0.2,0.4,0.5,0.7,0.7,1c0.5,0.6,0.7,0.9,0.7,1.2c-0.1-0.1-0.2-0.1-0.2-0.1
		c-0.2-0.1-0.4-0.1-0.5,0.1c-0.1,0.2-0.1,0.4,0.1,0.5c0.2,0,0.3,0.2,0.5,0.3c0.5,0.4,1.1,1,0.9,1.6c-0.1,0.1-0.2,0.2-0.3,0.4
		c-0.1,0-0.1,0.1-0.1,0.1c-0.4,0.4-1.2,0.8-1.9,0.9c-0.8,0.1-1.5-0.3-1.9-1.2c-0.1-0.2-0.1-0.4,0-0.5c0.1-0.3,0.4-0.4,0.5-0.4
		c1.3-0.2,1.7-0.8,1.8-1.1c0-0.1,0-0.1,0-0.2c0.4-0.8-0.1-1.5-0.6-2.1c-0.3-0.3-0.5-0.6-0.6-0.9c0-0.2-0.2-0.3-0.4-0.3
		c-0.2,0-0.3,0.2-0.3,0.4c0.1,0.4,0.4,0.8,0.7,1.2c0.1,0.1,0.2,0.3,0.3,0.4c-0.2,0-0.5,0-0.8,0.1c-0.8,0.3-1.1,0.4-1.2,0.4
		c-0.1,0-0.5-0.1-1.2-0.4c-0.2-0.2-0.5-0.2-0.8-0.1c0.1-0.1,0.2-0.2,0.3-0.4c0.3-0.4,0.6-0.8,0.7-1.2c0-0.2-0.1-0.4-0.3-0.4
		s-0.4,0.1-0.4,0.3c-0.1,0.2-0.3,0.6-0.6,0.9c-0.5,0.6-1,1.3-0.6,2.1c0,0.1,0,0.1,0,0.2c0.1,0.4,0.4,1,1.7,1.1
		c0.1,0,0.5,0.2,0.6,0.4c0.1,0.1,0.1,0.3,0,0.5c-0.4,0.9-1.1,1.4-1.9,1.3c-0.7,0-1.5-0.4-1.9-0.9l-0.1-0.1c-0.2-0.2-0.3-0.4-0.3-0.5
		c-0.2-0.5,0.4-1.2,0.9-1.6c0.2-0.1,0.4-0.2,0.5-0.3c0.2-0.1,0.2-0.3,0.1-0.5c-0.1-0.2-0.3-0.2-0.5-0.1c0,0-0.1,0-0.2,0.1
		c0-0.3,0.2-0.6,0.7-1.2c0.2-0.3,0.5-0.6,0.7-1c1.2-1.9,0.6-3.4-0.3-4.1c-0.7-0.6-1.7-0.7-2.6-0.4c-0.1,0-0.1,0-0.1,0
		c-0.4,0.1-0.7,0.3-1,0.6c-0.1,0.1-0.1,0.3,0,0.5c0.1,0.1,0.3,0.1,0.5,0c0.1-0.1,0.2-0.1,0.3-0.2c0.1,0.4,0.3,1,0.8,1.4
		c0.3,0.2,0.7,0.3,1.1,0.3c0.3,0,0.8,0,1.2-0.2c0,0.5-0.1,1.1-0.5,1.7c-0.2,0.3-0.5,0.6-0.7,0.9c-0.5,0.6-1.1,1.4-0.7,2.2
		c-0.5,0.4-0.9,0.9-1,1.5c-1.2-1.3-3-3.9-2.1-7.8c0-0.1,0-0.2-0.1-0.3c-0.1,0-2.5-3.2-1.2-6.1c0.6-0.1,2.4-0.1,3.7,1.3
		c0.1,0.1,0.2,0.1,0.3,0.1c0.1,0,0.2,0,0.3-0.1c0,0,1.5-1.6,4.6-1.6c3.1,0,4.6,1.6,4.6,1.6c0.1,0.1,0.2,0.1,0.3,0.1
		c0.1,0,0.2,0,0.3-0.1c1.3-1.4,3.1-1.3,3.7-1.3c1.2,2.9-1.2,6.1-1.2,6.1c-0.1,0.1-0.1,0.2-0.1,0.3C175.7,96,173.9,98.6,172.9,99.8z
		 M170,92.7c0.1-0.2,0.3-0.4,0.5-0.6c0.4-0.4,1.1-0.5,1.7-0.4c0,0.3-0.1,0.8-0.5,1.1C171.3,93.1,170.6,92.9,170,92.7z M164.5,92.7
		c-0.8,0.3-1.3,0.3-1.7,0.1c-0.4-0.3-0.5-0.8-0.5-1.1c0.6-0.1,1.3,0.1,1.7,0.4C164.3,92.3,164.4,92.5,164.5,92.7z"/>
	<path class="st0" d="M105.9,99.2c11.9,7.5,26,10,39.7,6.9c4.8-1.1,9.4-2.8,13.6-5.1c-0.9-0.9-1.7-2-2.2-3.2
		c-3.8,2-7.8,3.5-12.2,4.5c-26.3,5.9-52.5-10.7-58.4-37c-5.9-26.3,10.7-52.5,37-58.4c26.3-5.9,52.5,10.7,58.4,37
		c3,13.5,0.1,27-7,37.7c1.1,0.7,2.1,1.5,2.9,2.5c0.3-0.4,0.6-0.9,0.9-1.3c7.5-11.9,10-26,6.9-39.7c-3.1-13.7-11.3-25.4-23.2-33
		c-11.9-7.5-26-10-39.7-6.9c-13.8,3.2-25.5,11.4-33,23.3s-10,26-6.9,39.7C85.8,79.9,94,91.6,105.9,99.2z"/>
</g>
</svg>
