<?xml version="1.0" encoding="utf-8"?>
<!-- Generator: Adobe Illustrator 24.1.1, SVG Export Plug-In . SVG Version: 6.00 Build 0)  -->
<svg version="1.1" id="Capa_1" xmlns="http://www.w3.org/2000/svg" xmlns:xlink="http://www.w3.org/1999/xlink" x="0px" y="0px"
	 viewBox="0 0 271 174" style="enable-background:new 0 0 271 174;" xml:space="preserve">
<style type="text/css">
	.st0{fill:#FFFFFF;}
</style>
<g>
	<path class="st0" d="M6.9,117.9h12.3v2.5H6.9c-0.7,0-1.3,0.2-1.7,0.7c-0.5,0.5-0.7,1.1-0.7,1.7c0,0.7,0.2,1.3,0.7,1.7
		c0.5,0.5,1.1,0.7,1.7,0.7h7.4c1.4,0,2.5,0.5,3.5,1.4c1,1,1.4,2.1,1.4,3.5s-0.5,2.5-1.4,3.5c-1,1-2.1,1.4-3.5,1.4H2v-2.5h12.3
		c0.7,0,1.3-0.2,1.7-0.7c0.5-0.5,0.7-1.1,0.7-1.7c0-0.7-0.2-1.3-0.7-1.7c-0.5-0.5-1.1-0.7-1.7-0.7H6.9c-1.4,0-2.5-0.5-3.5-1.4
		c-1-1-1.4-2.1-1.4-3.5c0-1.4,0.5-2.5,1.4-3.5C4.4,118.4,5.6,117.9,6.9,117.9z"/>
	<path class="st0" d="M29.3,117.9H38v2.5h-8.6c-1.7,0-3.2,0.6-4.4,1.8c-0.9,0.9-1.5,2-1.7,3.1h12.2v2.5H23.3
		c0.2,1.2,0.8,2.2,1.7,3.1c1.2,1.2,2.7,1.8,4.4,1.8H38v2.5h-8.6c-2.4,0-4.4-0.8-6.1-2.5c-1.7-1.7-2.5-3.7-2.5-6.1
		c0-2.4,0.8-4.4,2.5-6.1C24.9,118.7,27,117.9,29.3,117.9z"/>
	<path class="st0" d="M56.7,135.2H48c-2.4,0-4.4-0.8-6.1-2.5c-1.7-1.7-2.5-3.7-2.5-6.1c0-2.4,0.8-4.4,2.5-6.1
		c1.7-1.7,3.7-2.5,6.1-2.5h8.6v2.5H48c-1.7,0-3.2,0.6-4.4,1.8c-1.2,1.2-1.8,2.7-1.8,4.4c0,1.7,0.6,3.2,1.8,4.4
		c1.2,1.2,2.7,1.8,4.4,1.8h6.2v-4.9H48v-2.5h8.6V135.2z"/>
	<path class="st0" d="M58.1,126.5v-8.6h2.5v8.6c0,1.7,0.6,3.2,1.8,4.4c1.2,1.2,2.7,1.8,4.4,1.8c1.7,0,3.2-0.6,4.4-1.8
		c1.2-1.2,1.8-2.7,1.8-4.4v-8.6h2.5v8.6c0,2.4-0.8,4.4-2.5,6.1c-1.7,1.7-3.7,2.5-6.1,2.5c-2.4,0-4.4-0.8-6.1-2.5
		C58.9,131,58.1,128.9,58.1,126.5z"/>
	<path class="st0" d="M76.8,117.9h12.3c1.4,0,2.5,0.5,3.5,1.4c1,1,1.4,2.1,1.4,3.5c0,1.4-0.5,2.5-1.4,3.5c-0.1,0.1-0.1,0.1-0.2,0.2
		c0.1,0.1,0.1,0.1,0.2,0.2c1,1,1.4,2.1,1.4,3.5v4.9h-2.5v-4.9c0-0.7-0.2-1.3-0.7-1.7c-0.5-0.5-1.1-0.7-1.7-0.7h-9.9v7.4h-2.5V117.9z
		 M79.3,120.4v4.9h9.9c0.7,0,1.3-0.2,1.7-0.7c0.5-0.5,0.7-1.1,0.7-1.7c0-0.7-0.2-1.3-0.7-1.7c-0.5-0.5-1.1-0.7-1.7-0.7H79.3z"/>
	<path class="st0" d="M110.2,120.4c1.7,1.7,2.5,3.7,2.5,6.1c0,2.4-0.8,4.4-2.5,6.1c-1.7,1.7-3.7,2.5-6.1,2.5c-2.4,0-4.4-0.8-6.1-2.5
		c-1.7-1.7-2.5-3.7-2.5-6.1c0-2.4,0.8-4.4,2.5-6.1c1.7-1.7,3.7-2.5,6.1-2.5C106.5,117.9,108.6,118.7,110.2,120.4z M104.1,120.4
		c-1.7,0-3.2,0.6-4.4,1.8c-1.2,1.2-1.8,2.7-1.8,4.4c0,1.7,0.6,3.2,1.8,4.4c1.2,1.2,2.7,1.8,4.4,1.8c1.7,0,3.2-0.6,4.4-1.8
		c1.2-1.2,1.8-2.7,1.8-4.4c0-1.7-0.6-3.2-1.8-4.4C107.3,121,105.8,120.4,104.1,120.4z"/>
	<path class="st0" d="M119.1,117.9h12.3v2.5h-12.3c-0.7,0-1.3,0.2-1.7,0.7c-0.5,0.5-0.7,1.1-0.7,1.7c0,0.7,0.2,1.3,0.7,1.7
		c0.5,0.5,1.1,0.7,1.7,0.7h7.4c1.4,0,2.5,0.5,3.5,1.4c1,1,1.4,2.1,1.4,3.5s-0.5,2.5-1.4,3.5c-1,1-2.1,1.4-3.5,1.4h-12.3v-2.5h12.3
		c0.7,0,1.3-0.2,1.7-0.7c0.5-0.5,0.7-1.1,0.7-1.7c0-0.7-0.2-1.3-0.7-1.7c-0.5-0.5-1.1-0.7-1.7-0.7h-7.4c-1.4,0-2.5-0.5-3.5-1.4
		c-1-1-1.4-2.1-1.4-3.5c0-1.4,0.5-2.5,1.4-3.5C116.6,118.4,117.8,117.9,119.1,117.9z"/>
	<path class="st0" d="M139.3,117.9h12.3c1.4,0,2.5,0.5,3.5,1.4c1,1,1.4,2.1,1.4,3.5c0,1.4-0.5,2.5-1.4,3.5c-1,1-2.1,1.4-3.5,1.4
		h-9.9v7.4h-2.5V117.9z M141.8,120.4v4.9h9.9c0.7,0,1.3-0.2,1.7-0.7c0.5-0.5,0.7-1.1,0.7-1.7c0-0.7-0.2-1.3-0.7-1.7
		c-0.5-0.5-1.1-0.7-1.7-0.7H141.8z"/>
	<path class="st0" d="M158,126.5v-8.6h2.5v8.6c0,1.7,0.6,3.2,1.8,4.4c1.2,1.2,2.7,1.8,4.4,1.8c1.7,0,3.2-0.6,4.4-1.8
		c1.2-1.2,1.8-2.7,1.8-4.4v-8.6h2.5v8.6c0,2.4-0.8,4.4-2.5,6.1c-1.7,1.7-3.7,2.5-6.1,2.5c-2.4,0-4.4-0.8-6.1-2.5
		C158.9,131,158,128.9,158,126.5z"/>
	<path class="st0" d="M191.5,126.5c0-1.7-0.6-3.2-1.8-4.4c-1.2-1.2-2.7-1.8-4.4-1.8c-1.7,0-3.2,0.6-4.4,1.8
		c-1.2,1.2-1.8,2.7-1.8,4.4v8.6h-2.5v-8.6c0-2.4,0.8-4.4,2.5-6.1c1.7-1.7,3.7-2.5,6.1-2.5c2.4,0,4.4,0.8,6.1,2.5
		c0.5,0.5,0.9,1,1.3,1.6c0.4-0.6,0.8-1.1,1.3-1.6c1.7-1.7,3.7-2.5,6.1-2.5c2.4,0,4.4,0.8,6.1,2.5c1.7,1.7,2.5,3.7,2.5,6.1v8.6h-2.5
		v-8.6c0-1.7-0.6-3.2-1.8-4.4c-1.2-1.2-2.7-1.8-4.4-1.8c-1.7,0-3.2,0.6-4.4,1.8c-1.2,1.2-1.8,2.7-1.8,4.4v8.6h-2.5V126.5z"/>
	<path class="st0" d="M212.7,129v6.2h-2.5v-8.6c0-2.4,0.8-4.4,2.5-6.1c1.7-1.7,3.7-2.5,6.1-2.5c2.4,0,4.4,0.8,6.1,2.5
		c1.7,1.7,2.5,3.7,2.5,6.1v8.6h-2.5V129H212.7z M225.1,126.5c0-1.7-0.6-3.2-1.8-4.4c-1.2-1.2-2.7-1.8-4.4-1.8
		c-1.7,0-3.2,0.6-4.4,1.8c-1.2,1.2-1.8,2.7-1.8,4.4H225.1z"/>
	<path class="st0" d="M134.8,18.4h-15h-6.7H111h-4.4v0.4c2.4,0,4.4,2,4.4,4.4v6.1c-6-2-12.3-1.9-18.2,0.4c-2.7,1-4.9,2.9-6.8,5
		c-4.2,4.8-4.6,12-1.6,17.6c3.2,5.9,9.4,9.9,15,13.1c5.5,3.2,11.1,6.7,13.6,12.9c1,2.4,1.5,5.4,1.5,8c0.1,5.1-3,10.7-7,13.8
		c1.2-0.4,2.5-0.7,3.7-1.1c1-0.4,2.1-0.8,3.1-1.3c2-1.1,3.9-2.4,5.5-3.9c0.9-0.8,1.8-1.8,2.6-2.7c5.7-6.8,6-17.1,1.1-24.3
		c-4.5-6.7-12-10.3-18.9-14c-3.9-2.1-7.9-4.3-10.3-8.1c-2-3.2-1.8-7.7,1.4-10.2c4.5-3.5,10.3-2.4,15.3-1.1v19.9
		c4.8,2.6,9.6,5.6,13,9.8v-9.3c7-1.3,25.5-4.1,25.5-19.9C149.5,25.3,142.9,18.4,134.8,18.4z M124,53.1V18.9h2.3h0.9
		c4.7,0,8.4,6.7,8.4,15C135.6,42.6,132.5,49.3,124,53.1z"/>
	<circle class="st0" cx="230.6" cy="133.9" r="1.2"/>
	<path class="st0" d="M146.8,90.8c0.1,0.2,0,0.4-0.2,0.5c-0.1,0-0.1,0-0.2,0c-0.1,0-0.3-0.1-0.3-0.2c-1.1-2.2-3.2-1.5-3.3-1.5
		c-0.2,0.1-0.4,0-0.5-0.2c-0.1-0.2,0-0.4,0.2-0.5C142.8,88.9,145.4,88,146.8,90.8z M154.7,88.9c0,0-2.8-0.9-4.2,1.9
		c-0.1,0.2,0,0.4,0.2,0.5c0.1,0,0.1,0,0.2,0c0.1,0,0.3-0.1,0.3-0.2c1.1-2.2,3.2-1.6,3.3-1.5c0.2,0.1,0.4,0,0.5-0.2
		C155,89.2,154.9,89,154.7,88.9z M157,92.1c1.2,5.7-3,9-3.4,9.3c-0.5,0.6-1.4,1.1-2.3,1.2c-0.3,0.3-1.2,1.1-2.6,1.1
		c-1.4,0-2.3-0.8-2.6-1.1c-0.9-0.1-1.8-0.6-2.3-1.2c-0.4-0.3-4.6-3.6-3.4-9.3c-0.5-0.7-2.5-3.9-1.1-6.9c0.1-0.1,0.2-0.2,0.3-0.2
		c0.1,0,2.5-0.4,4.3,1.2c0.6-0.5,2.2-1.6,4.8-1.6c2.7,0,4.2,1.1,4.8,1.6c1.8-1.7,4.2-1.3,4.3-1.2c0.1,0,0.2,0.1,0.3,0.2
		C159.5,88.2,157.5,91.3,157,92.1z M148.7,102.9c0.7,0,1.2-0.2,1.5-0.5c-0.6-0.2-1.1-0.6-1.5-1.3c-0.4,0.7-0.9,1.1-1.5,1.3
		C147.5,102.7,148,102.9,148.7,102.9z M148.7,99.5c0.3-0.4,0.9-0.5,0.9-0.5c1-0.1,1.1-0.4,1.2-0.5c0-0.2,0-0.3-0.1-0.4
		c-0.1-0.1-0.2-0.2-0.5-0.1c-1,0.5-1.4,0.5-1.5,0.5c-0.1,0-0.5,0-1.5-0.5c-0.1,0-0.1,0-0.2,0c-0.1,0-0.2,0.1-0.3,0.1
		c-0.1,0.1-0.2,0.2-0.1,0.4c0,0.1,0.2,0.4,1.1,0.5C147.8,98.9,148.3,99.1,148.7,99.5z M156.2,92c0-0.1,0-0.2,0.1-0.3
		c0,0,2.4-3.2,1.2-6.1c-0.6,0-2.4-0.1-3.7,1.3c-0.1,0.1-0.2,0.1-0.3,0.1c-0.1,0-0.2,0-0.3-0.1c0,0-1.5-1.6-4.6-1.6
		c-3.1,0-4.6,1.6-4.6,1.6c-0.1,0.1-0.2,0.1-0.3,0.1c0,0,0,0,0,0c-0.1,0-0.2,0-0.3-0.1c-1.3-1.4-3.1-1.4-3.7-1.3
		c-1.3,2.9,1.1,6.1,1.2,6.1c0.1,0.1,0.1,0.2,0.1,0.3c-0.9,3.9,0.9,6.5,2.1,7.8c0.1-0.6,0.5-1.1,1-1.5c-0.4-0.8,0.2-1.6,0.7-2.2
		c0.2-0.3,0.5-0.6,0.7-0.9c0.4-0.6,0.5-1.2,0.5-1.7c-0.4,0.2-0.9,0.2-1.2,0.2c-0.4,0-0.8-0.1-1.1-0.3c-0.5-0.4-0.7-1-0.8-1.4
		c-0.1,0.1-0.2,0.1-0.3,0.2c-0.2,0.1-0.4,0.1-0.5,0c-0.1-0.2-0.1-0.4,0-0.5c0.3-0.3,0.6-0.5,1-0.6c0,0,0,0,0.1,0
		c0.9-0.3,1.9-0.2,2.6,0.4c0.9,0.7,1.5,2.2,0.3,4.1c-0.2,0.4-0.5,0.7-0.7,1c-0.5,0.6-0.7,0.9-0.7,1.2c0.1-0.1,0.2-0.1,0.2-0.1
		c0.2-0.1,0.4-0.1,0.5,0.1c0.1,0.2,0.1,0.4-0.1,0.5c-0.1,0.1-0.3,0.2-0.5,0.3c0,0,0,0,0,0c0,0,0,0,0,0c-0.5,0.4-1.1,1.1-0.9,1.6
		c0,0.1,0.1,0.3,0.3,0.5c0,0,0.1,0.1,0.1,0.1c0.4,0.5,1.2,0.9,1.9,0.9c0.8,0.1,1.5-0.4,1.9-1.3c0.1-0.2,0.1-0.4,0-0.5
		c-0.1-0.2-0.5-0.4-0.6-0.4c-1.3-0.1-1.6-0.7-1.7-1.1c0-0.1,0-0.1,0-0.2c-0.4-0.8,0.1-1.5,0.6-2.1c0.3-0.3,0.5-0.7,0.6-0.9
		c0-0.2,0.2-0.3,0.4-0.3c0.2,0,0.3,0.2,0.3,0.4c-0.1,0.4-0.4,0.8-0.7,1.2c-0.1,0.2-0.2,0.3-0.3,0.4c0.3-0.1,0.6-0.1,0.8,0.1
		c0.7,0.3,1.1,0.4,1.2,0.4c0.1,0,0.4-0.1,1.2-0.4c0.3-0.1,0.6-0.1,0.8-0.1c-0.1-0.1-0.2-0.3-0.3-0.4c-0.3-0.4-0.6-0.8-0.7-1.2
		c0-0.2,0.1-0.4,0.3-0.4c0.2,0,0.4,0.1,0.4,0.3c0.1,0.3,0.3,0.6,0.6,0.9c0.5,0.6,1,1.3,0.6,2.1c0,0.1,0,0.1,0,0.2
		c-0.1,0.3-0.5,0.9-1.8,1.1c-0.1,0-0.4,0.1-0.5,0.4c-0.1,0.1-0.1,0.3,0,0.5c0.4,0.9,1.1,1.3,1.9,1.2c0.7-0.1,1.5-0.5,1.9-0.9
		c0,0,0-0.1,0.1-0.1c0.1-0.2,0.2-0.3,0.3-0.4c0.2-0.6-0.4-1.2-0.9-1.6c0,0,0,0,0,0c0,0,0,0,0,0c-0.2-0.1-0.3-0.3-0.5-0.3
		c-0.2-0.1-0.2-0.3-0.1-0.5c0.1-0.2,0.3-0.2,0.5-0.1c0,0,0.1,0,0.2,0.1c0-0.3-0.2-0.6-0.7-1.2c-0.2-0.3-0.5-0.6-0.7-1
		c-1.1-1.9-0.6-3.4,0.3-4.1c0.8-0.6,1.7-0.7,2.6-0.4c0,0,0.1,0,0.1,0c0.3,0.1,0.7,0.3,1,0.6c0.2,0.1,0.2,0.4,0,0.5
		c-0.1,0.2-0.4,0.2-0.5,0c-0.1-0.1-0.2-0.2-0.3-0.2c-0.1,0.5-0.3,1-0.8,1.4c-0.3,0.2-0.6,0.3-1.1,0.3c-0.4,0-0.8-0.1-1.2-0.2
		c0,0.5,0.2,1.1,0.5,1.7c0.2,0.3,0.4,0.6,0.7,0.9c0.5,0.7,1.1,1.4,0.7,2.2c0.4,0.4,0.9,0.9,1,1.5C155.3,98.6,157.1,96,156.2,92z
		 M153.1,92.8c0.4-0.3,0.5-0.8,0.5-1.1c-0.6-0.1-1.3,0-1.7,0.4c-0.2,0.2-0.4,0.4-0.5,0.6C152,92.9,152.7,93.1,153.1,92.8z
		 M145.4,92.1c-0.4-0.3-1.1-0.5-1.7-0.4c0,0.3,0.1,0.8,0.5,1.1c0.4,0.2,0.9,0.2,1.7-0.1C145.8,92.5,145.7,92.3,145.4,92.1z"/>
	<g>
		<path class="st0" d="M166.2,107.3"/>
		<g>
			<path class="st0" d="M166.2,108.8c1.9,0,1.9-3,0-3C164.2,105.8,164.2,108.8,166.2,108.8L166.2,108.8z"/>
		</g>
	</g>
	<path class="st0" d="M138.4,97.8c-3.8,2-7.8,3.5-12.2,4.5c-26.3,5.9-52.5-10.7-58.4-37c-5.9-26.3,10.7-52.5,37-58.4
		c26.3-5.9,52.5,10.7,58.4,37c3,13.5,0.1,27-7,37.7c1.1,0.7,2.1,1.5,2.9,2.5c0.3-0.4,0.6-0.9,0.9-1.3c7.5-11.9,10-26,6.9-39.7
		c-3.1-13.7-11.3-25.4-23.2-33c-11.9-7.5-26-10-39.7-6.9C90.2,6.4,78.5,14.6,71,26.5c-7.5,11.9-10,26-6.9,39.7
		c3.1,13.7,11.3,25.4,23.2,33c11.9,7.5,26,10,39.7,6.9c4.8-1.1,9.4-2.8,13.6-5.1C139.7,100.1,138.9,99,138.4,97.8z"/>
</g>
</svg>
