<?xml version="1.0" encoding="utf-8"?>
<!-- Generator: Adobe Illustrator 24.1.1, SVG Export Plug-In . SVG Version: 6.00 Build 0)  -->
<svg version="1.1" xmlns="http://www.w3.org/2000/svg" xmlns:xlink="http://www.w3.org/1999/xlink" x="0px" y="0px"
	 viewBox="0 0 564.5 198.7" style="enable-background:new 0 0 564.5 198.7;" xml:space="preserve">
<style type="text/css">
	.st0{fill:url(#SVGID_1_);}
	.st1{fill:url(#SVGID_2_);}
	.st2{fill:url(#SVGID_3_);}
	.st3{fill:url(#SVGID_4_);}
	.st4{fill:url(#SVGID_5_);}
	.st5{fill:url(#SVGID_6_);}
	.st6{fill:url(#SVGID_7_);}
	.st7{fill:url(#SVGID_8_);}
	.st8{fill:url(#SVGID_9_);}
	.st9{fill:url(#SVGID_10_);}
	.st10{fill:url(#SVGID_11_);}
	.st11{fill:url(#SVGID_12_);}
	.st12{fill:url(#SVGID_13_);}
	.st13{fill:url(#SVGID_14_);}
	.st14{fill:url(#SVGID_15_);}
	.st15{fill:url(#SVGID_16_);}
	.st16{fill:url(#SVGID_17_);}
</style>
<g id="Capa_1">
	<g>
		<linearGradient id="SVGID_1_" gradientUnits="userSpaceOnUse" x1="174.229" y1="-0.6786" x2="174.229" y2="200.9148">
			<stop  offset="0" style="stop-color:#281A09"/>
			<stop  offset="4.477547e-03" style="stop-color:#38240D"/>
			<stop  offset="1.364906e-02" style="stop-color:#533513"/>
			<stop  offset="2.420006e-02" style="stop-color:#694319"/>
			<stop  offset="3.652139e-02" style="stop-color:#7A4E1D"/>
			<stop  offset="5.175335e-02" style="stop-color:#855520"/>
			<stop  offset="7.312597e-02" style="stop-color:#8C5A22"/>
			<stop  offset="0.1325" style="stop-color:#8E5B22"/>
			<stop  offset="0.2857" style="stop-color:#F1D6A3"/>
			<stop  offset="0.3949" style="stop-color:#ECC57E"/>
			<stop  offset="0.4735" style="stop-color:#E8BA65"/>
			<stop  offset="0.6005" style="stop-color:#956841"/>
			<stop  offset="0.7523" style="stop-color:#8B5E3C"/>
			<stop  offset="0.8092" style="stop-color:#E6B964"/>
			<stop  offset="1" style="stop-color:#603913"/>
		</linearGradient>
		<path class="st0" d="M161.9,85.3c-1.6,1.6-2.5,3.6-2.5,6c0,2.3,0.8,4.3,2.5,6c1.6,1.6,3.6,2.5,6,2.5h12.6c1.2,0,2.2,0.4,3,1.2
			c0.8,0.8,1.2,1.8,1.2,3c0,1.2-0.4,2.2-1.2,3c-0.8,0.8-1.8,1.2-3,1.2h-21.1v4.2h21.1c2.3,0,4.3-0.8,6-2.5c1.6-1.6,2.5-3.6,2.5-6
			c0-2.3-0.8-4.3-2.5-6c-1.6-1.6-3.6-2.5-6-2.5h-12.6c-1.2,0-2.2-0.4-3-1.2c-0.8-0.8-1.2-1.8-1.2-3c0-1.2,0.4-2.2,1.2-3
			c0.8-0.8,1.8-1.2,3-1.2H189v-4.2h-21.1C165.6,82.8,163.6,83.6,161.9,85.3z"/>
		<linearGradient id="SVGID_2_" gradientUnits="userSpaceOnUse" x1="206.15" y1="-0.6786" x2="206.15" y2="200.9148">
			<stop  offset="0" style="stop-color:#281A09"/>
			<stop  offset="4.477547e-03" style="stop-color:#38240D"/>
			<stop  offset="1.364906e-02" style="stop-color:#533513"/>
			<stop  offset="2.420006e-02" style="stop-color:#694319"/>
			<stop  offset="3.652139e-02" style="stop-color:#7A4E1D"/>
			<stop  offset="5.175335e-02" style="stop-color:#855520"/>
			<stop  offset="7.312597e-02" style="stop-color:#8C5A22"/>
			<stop  offset="0.1325" style="stop-color:#8E5B22"/>
			<stop  offset="0.2857" style="stop-color:#F1D6A3"/>
			<stop  offset="0.3949" style="stop-color:#ECC57E"/>
			<stop  offset="0.4735" style="stop-color:#E8BA65"/>
			<stop  offset="0.6005" style="stop-color:#956841"/>
			<stop  offset="0.7523" style="stop-color:#8B5E3C"/>
			<stop  offset="0.8092" style="stop-color:#E6B964"/>
			<stop  offset="1" style="stop-color:#603913"/>
		</linearGradient>
		<path class="st1" d="M195.7,87.1c-2.9,2.9-4.3,6.4-4.3,10.4c0,4.1,1.4,7.6,4.3,10.4c2.9,2.9,6.4,4.3,10.4,4.3h14.8v-4.2h-14.8
			c-2.9,0-5.4-1-7.4-3.1c-1.5-1.5-2.5-3.3-2.9-5.3h20.9v-4.2h-20.9c0.4-2,1.4-3.8,2.9-5.4c2.1-2.1,4.5-3.1,7.4-3.1h14.8v-4.2h-14.8
			C202.1,82.8,198.6,84.2,195.7,87.1z"/>
		<linearGradient id="SVGID_3_" gradientUnits="userSpaceOnUse" x1="238.069" y1="-0.6786" x2="238.069" y2="200.9148">
			<stop  offset="0" style="stop-color:#281A09"/>
			<stop  offset="4.477547e-03" style="stop-color:#38240D"/>
			<stop  offset="1.364906e-02" style="stop-color:#533513"/>
			<stop  offset="2.420006e-02" style="stop-color:#694319"/>
			<stop  offset="3.652139e-02" style="stop-color:#7A4E1D"/>
			<stop  offset="5.175335e-02" style="stop-color:#855520"/>
			<stop  offset="7.312597e-02" style="stop-color:#8C5A22"/>
			<stop  offset="0.1325" style="stop-color:#8E5B22"/>
			<stop  offset="0.2857" style="stop-color:#F1D6A3"/>
			<stop  offset="0.3949" style="stop-color:#ECC57E"/>
			<stop  offset="0.4735" style="stop-color:#E8BA65"/>
			<stop  offset="0.6005" style="stop-color:#956841"/>
			<stop  offset="0.7523" style="stop-color:#8B5E3C"/>
			<stop  offset="0.8092" style="stop-color:#E6B964"/>
			<stop  offset="1" style="stop-color:#603913"/>
		</linearGradient>
		<path class="st2" d="M227.6,87.1c-2.9,2.9-4.3,6.4-4.3,10.4c0,4.1,1.4,7.6,4.3,10.4c2.9,2.9,6.4,4.3,10.4,4.3h14.8V95.4h-14.8v4.2
			h10.5v8.4h-10.5c-2.9,0-5.4-1-7.5-3.1c-2.1-2.1-3.1-4.5-3.1-7.5s1-5.4,3.1-7.5c2.1-2.1,4.5-3.1,7.5-3.1h14.8v-4.2h-14.8
			C234,82.8,230.5,84.2,227.6,87.1z"/>
		<linearGradient id="SVGID_4_" gradientUnits="userSpaceOnUse" x1="269.988" y1="-0.6786" x2="269.988" y2="200.9148">
			<stop  offset="0" style="stop-color:#281A09"/>
			<stop  offset="4.477547e-03" style="stop-color:#38240D"/>
			<stop  offset="1.364906e-02" style="stop-color:#533513"/>
			<stop  offset="2.420006e-02" style="stop-color:#694319"/>
			<stop  offset="3.652139e-02" style="stop-color:#7A4E1D"/>
			<stop  offset="5.175335e-02" style="stop-color:#855520"/>
			<stop  offset="7.312597e-02" style="stop-color:#8C5A22"/>
			<stop  offset="0.1325" style="stop-color:#8E5B22"/>
			<stop  offset="0.2857" style="stop-color:#F1D6A3"/>
			<stop  offset="0.3949" style="stop-color:#ECC57E"/>
			<stop  offset="0.4735" style="stop-color:#E8BA65"/>
			<stop  offset="0.6005" style="stop-color:#956841"/>
			<stop  offset="0.7523" style="stop-color:#8B5E3C"/>
			<stop  offset="0.8092" style="stop-color:#E6B964"/>
			<stop  offset="1" style="stop-color:#603913"/>
		</linearGradient>
		<path class="st3" d="M280.5,97.5c0,2.9-1,5.4-3.1,7.5c-2.1,2.1-4.5,3.1-7.5,3.1c-2.9,0-5.4-1-7.5-3.1c-2.1-2.1-3.1-4.5-3.1-7.5
			V82.8h-4.2v14.8c0,4.1,1.4,7.6,4.3,10.4c2.9,2.9,6.4,4.3,10.4,4.3c4.1,0,7.6-1.4,10.4-4.3c2.9-2.9,4.3-6.4,4.3-10.4V82.8h-4.2
			V97.5z"/>
		<linearGradient id="SVGID_5_" gradientUnits="userSpaceOnUse" x1="301.9085" y1="-0.6786" x2="301.9085" y2="200.9148">
			<stop  offset="0" style="stop-color:#281A09"/>
			<stop  offset="4.477547e-03" style="stop-color:#38240D"/>
			<stop  offset="1.364906e-02" style="stop-color:#533513"/>
			<stop  offset="2.420006e-02" style="stop-color:#694319"/>
			<stop  offset="3.652139e-02" style="stop-color:#7A4E1D"/>
			<stop  offset="5.175335e-02" style="stop-color:#855520"/>
			<stop  offset="7.312597e-02" style="stop-color:#8C5A22"/>
			<stop  offset="0.1325" style="stop-color:#8E5B22"/>
			<stop  offset="0.2857" style="stop-color:#F1D6A3"/>
			<stop  offset="0.3949" style="stop-color:#ECC57E"/>
			<stop  offset="0.4735" style="stop-color:#E8BA65"/>
			<stop  offset="0.6005" style="stop-color:#956841"/>
			<stop  offset="0.7523" style="stop-color:#8B5E3C"/>
			<stop  offset="0.8092" style="stop-color:#E6B964"/>
			<stop  offset="1" style="stop-color:#603913"/>
		</linearGradient>
		<path class="st4" d="M316.7,91.2c0-2.3-0.8-4.3-2.5-6c-1.6-1.6-3.6-2.5-6-2.5h-21.1v29.5h4.2V99.6h16.9c1.2,0,2.2,0.4,3,1.2
			c0.8,0.8,1.2,1.8,1.2,3v8.4h4.2v-8.4c0-2.3-0.8-4.3-2.5-6c-0.1-0.1-0.3-0.2-0.4-0.4c0.1-0.1,0.3-0.2,0.4-0.4
			C315.8,95.5,316.7,93.6,316.7,91.2z M311.2,94.2c-0.8,0.8-1.8,1.2-3,1.2h-16.9V87h16.9c1.2,0,2.2,0.4,3,1.2c0.8,0.8,1.2,1.8,1.2,3
			C312.4,92.4,312,93.4,311.2,94.2z"/>
		<linearGradient id="SVGID_6_" gradientUnits="userSpaceOnUse" x1="333.827" y1="-0.6786" x2="333.827" y2="200.9148">
			<stop  offset="0" style="stop-color:#281A09"/>
			<stop  offset="4.477547e-03" style="stop-color:#38240D"/>
			<stop  offset="1.364906e-02" style="stop-color:#533513"/>
			<stop  offset="2.420006e-02" style="stop-color:#694319"/>
			<stop  offset="3.652139e-02" style="stop-color:#7A4E1D"/>
			<stop  offset="5.175335e-02" style="stop-color:#855520"/>
			<stop  offset="7.312597e-02" style="stop-color:#8C5A22"/>
			<stop  offset="0.1325" style="stop-color:#8E5B22"/>
			<stop  offset="0.2857" style="stop-color:#F1D6A3"/>
			<stop  offset="0.3949" style="stop-color:#ECC57E"/>
			<stop  offset="0.4735" style="stop-color:#E8BA65"/>
			<stop  offset="0.6005" style="stop-color:#956841"/>
			<stop  offset="0.7523" style="stop-color:#8B5E3C"/>
			<stop  offset="0.8092" style="stop-color:#E6B964"/>
			<stop  offset="1" style="stop-color:#603913"/>
		</linearGradient>
		<path class="st5" d="M333.8,82.8c-4.1,0-7.6,1.4-10.4,4.3c-2.9,2.9-4.3,6.4-4.3,10.4c0,4.1,1.4,7.6,4.3,10.4
			c2.9,2.9,6.4,4.3,10.4,4.3c4.1,0,7.6-1.4,10.4-4.3c2.9-2.9,4.3-6.4,4.3-10.4c0-4.1-1.4-7.6-4.3-10.4
			C341.4,84.2,337.9,82.8,333.8,82.8z M341.3,105c-2.1,2.1-4.5,3.1-7.5,3.1c-2.9,0-5.4-1-7.5-3.1c-2.1-2.1-3.1-4.5-3.1-7.5
			s1-5.4,3.1-7.5c2.1-2.1,4.5-3.1,7.5-3.1s5.4,1,7.5,3.1c2.1,2.1,3.1,4.5,3.1,7.5C344.4,100.4,343.3,102.9,341.3,105z"/>
		<linearGradient id="SVGID_7_" gradientUnits="userSpaceOnUse" x1="365.7465" y1="-0.6786" x2="365.7465" y2="200.9148">
			<stop  offset="0" style="stop-color:#281A09"/>
			<stop  offset="4.477547e-03" style="stop-color:#38240D"/>
			<stop  offset="1.364906e-02" style="stop-color:#533513"/>
			<stop  offset="2.420006e-02" style="stop-color:#694319"/>
			<stop  offset="3.652139e-02" style="stop-color:#7A4E1D"/>
			<stop  offset="5.175335e-02" style="stop-color:#855520"/>
			<stop  offset="7.312597e-02" style="stop-color:#8C5A22"/>
			<stop  offset="0.1325" style="stop-color:#8E5B22"/>
			<stop  offset="0.2857" style="stop-color:#F1D6A3"/>
			<stop  offset="0.3949" style="stop-color:#ECC57E"/>
			<stop  offset="0.4735" style="stop-color:#E8BA65"/>
			<stop  offset="0.6005" style="stop-color:#956841"/>
			<stop  offset="0.7523" style="stop-color:#8B5E3C"/>
			<stop  offset="0.8092" style="stop-color:#E6B964"/>
			<stop  offset="1" style="stop-color:#603913"/>
		</linearGradient>
		<path class="st6" d="M353.5,85.3c-1.6,1.6-2.5,3.6-2.5,6c0,2.3,0.8,4.3,2.5,6c1.6,1.6,3.6,2.5,6,2.5h12.6c1.2,0,2.2,0.4,3,1.2
			c0.8,0.8,1.2,1.8,1.2,3c0,1.2-0.4,2.2-1.2,3c-0.8,0.8-1.8,1.2-3,1.2H351v4.2h21.1c2.3,0,4.3-0.8,6-2.5s2.5-3.6,2.5-6
			c0-2.3-0.8-4.3-2.5-6c-1.6-1.6-3.6-2.5-6-2.5h-12.6c-1.2,0-2.2-0.4-3-1.2c-0.8-0.8-1.2-1.8-1.2-3c0-1.2,0.4-2.2,1.2-3
			c0.8-0.8,1.8-1.2,3-1.2h21.1v-4.2h-21.1C357.1,82.8,355.1,83.6,353.5,85.3z"/>
		<linearGradient id="SVGID_8_" gradientUnits="userSpaceOnUse" x1="408.6775" y1="-0.6786" x2="408.6775" y2="200.9148">
			<stop  offset="0" style="stop-color:#281A09"/>
			<stop  offset="4.477547e-03" style="stop-color:#38240D"/>
			<stop  offset="1.364906e-02" style="stop-color:#533513"/>
			<stop  offset="2.420006e-02" style="stop-color:#694319"/>
			<stop  offset="3.652139e-02" style="stop-color:#7A4E1D"/>
			<stop  offset="5.175335e-02" style="stop-color:#855520"/>
			<stop  offset="7.312597e-02" style="stop-color:#8C5A22"/>
			<stop  offset="0.1325" style="stop-color:#8E5B22"/>
			<stop  offset="0.2857" style="stop-color:#F1D6A3"/>
			<stop  offset="0.3949" style="stop-color:#ECC57E"/>
			<stop  offset="0.4735" style="stop-color:#E8BA65"/>
			<stop  offset="0.6005" style="stop-color:#956841"/>
			<stop  offset="0.7523" style="stop-color:#8B5E3C"/>
			<stop  offset="0.8092" style="stop-color:#E6B964"/>
			<stop  offset="1" style="stop-color:#603913"/>
		</linearGradient>
		<path class="st7" d="M415,82.8h-21.1v29.5h4.2V99.6H415c2.3,0,4.3-0.8,6-2.5c1.6-1.6,2.5-3.6,2.5-6s-0.8-4.3-2.5-6
			C419.3,83.6,417.3,82.8,415,82.8z M418,94.2c-0.8,0.8-1.8,1.2-3,1.2h-16.9V87H415c1.2,0,2.2,0.4,3,1.2c0.8,0.8,1.2,1.8,1.2,3
			C419.2,92.4,418.8,93.4,418,94.2z"/>
		<linearGradient id="SVGID_9_" gradientUnits="userSpaceOnUse" x1="440.596" y1="-0.6786" x2="440.596" y2="200.9148">
			<stop  offset="0" style="stop-color:#281A09"/>
			<stop  offset="4.477547e-03" style="stop-color:#38240D"/>
			<stop  offset="1.364906e-02" style="stop-color:#533513"/>
			<stop  offset="2.420006e-02" style="stop-color:#694319"/>
			<stop  offset="3.652139e-02" style="stop-color:#7A4E1D"/>
			<stop  offset="5.175335e-02" style="stop-color:#855520"/>
			<stop  offset="7.312597e-02" style="stop-color:#8C5A22"/>
			<stop  offset="0.1325" style="stop-color:#8E5B22"/>
			<stop  offset="0.2857" style="stop-color:#F1D6A3"/>
			<stop  offset="0.3949" style="stop-color:#ECC57E"/>
			<stop  offset="0.4735" style="stop-color:#E8BA65"/>
			<stop  offset="0.6005" style="stop-color:#956841"/>
			<stop  offset="0.7523" style="stop-color:#8B5E3C"/>
			<stop  offset="0.8092" style="stop-color:#E6B964"/>
			<stop  offset="1" style="stop-color:#603913"/>
		</linearGradient>
		<path class="st8" d="M451.1,97.5c0,2.9-1,5.4-3.1,7.5c-2.1,2.1-4.5,3.1-7.5,3.1c-2.9,0-5.4-1-7.5-3.1c-2.1-2.1-3.1-4.5-3.1-7.5
			V82.8h-4.2v14.8c0,4.1,1.4,7.6,4.3,10.4c2.9,2.9,6.4,4.3,10.4,4.3c4.1,0,7.6-1.4,10.4-4.3c2.9-2.9,4.3-6.4,4.3-10.4V82.8h-4.2
			V97.5z"/>
		<linearGradient id="SVGID_10_" gradientUnits="userSpaceOnUse" x1="485.163" y1="-0.6786" x2="485.163" y2="200.9148">
			<stop  offset="0" style="stop-color:#281A09"/>
			<stop  offset="4.477547e-03" style="stop-color:#38240D"/>
			<stop  offset="1.364906e-02" style="stop-color:#533513"/>
			<stop  offset="2.420006e-02" style="stop-color:#694319"/>
			<stop  offset="3.652139e-02" style="stop-color:#7A4E1D"/>
			<stop  offset="5.175335e-02" style="stop-color:#855520"/>
			<stop  offset="7.312597e-02" style="stop-color:#8C5A22"/>
			<stop  offset="0.1325" style="stop-color:#8E5B22"/>
			<stop  offset="0.2857" style="stop-color:#F1D6A3"/>
			<stop  offset="0.3949" style="stop-color:#ECC57E"/>
			<stop  offset="0.4735" style="stop-color:#E8BA65"/>
			<stop  offset="0.6005" style="stop-color:#956841"/>
			<stop  offset="0.7523" style="stop-color:#8B5E3C"/>
			<stop  offset="0.8092" style="stop-color:#E6B964"/>
			<stop  offset="1" style="stop-color:#603913"/>
		</linearGradient>
		<path class="st9" d="M497.8,82.8c-4.1,0-7.6,1.4-10.4,4.3c-0.9,0.9-1.6,1.8-2.2,2.8c-0.6-1-1.3-1.9-2.2-2.8
			c-2.9-2.9-6.4-4.3-10.4-4.3s-7.6,1.4-10.4,4.3c-2.9,2.9-4.3,6.4-4.3,10.4v14.8h4.2V97.5c0-2.9,1-5.4,3.1-7.5
			c2.1-2.1,4.5-3.1,7.5-3.1s5.4,1,7.5,3.1c2.1,2.1,3.1,4.5,3.1,7.5v14.8h4.2V97.5c0-2.9,1-5.4,3.1-7.5c2.1-2.1,4.5-3.1,7.5-3.1
			c2.9,0,5.4,1,7.5,3.1c2.1,2.1,3.1,4.5,3.1,7.5v14.8h4.2V97.5c0-4.1-1.4-7.6-4.3-10.4C505.4,84.2,501.9,82.8,497.8,82.8z"/>
		<linearGradient id="SVGID_11_" gradientUnits="userSpaceOnUse" x1="529.729" y1="-0.6786" x2="529.729" y2="200.9148">
			<stop  offset="0" style="stop-color:#281A09"/>
			<stop  offset="4.477547e-03" style="stop-color:#38240D"/>
			<stop  offset="1.364906e-02" style="stop-color:#533513"/>
			<stop  offset="2.420006e-02" style="stop-color:#694319"/>
			<stop  offset="3.652139e-02" style="stop-color:#7A4E1D"/>
			<stop  offset="5.175335e-02" style="stop-color:#855520"/>
			<stop  offset="7.312597e-02" style="stop-color:#8C5A22"/>
			<stop  offset="0.1325" style="stop-color:#8E5B22"/>
			<stop  offset="0.2857" style="stop-color:#F1D6A3"/>
			<stop  offset="0.3949" style="stop-color:#ECC57E"/>
			<stop  offset="0.4735" style="stop-color:#E8BA65"/>
			<stop  offset="0.6005" style="stop-color:#956841"/>
			<stop  offset="0.7523" style="stop-color:#8B5E3C"/>
			<stop  offset="0.8092" style="stop-color:#E6B964"/>
			<stop  offset="1" style="stop-color:#603913"/>
		</linearGradient>
		<path class="st10" d="M529.7,82.8c-4.1,0-7.6,1.4-10.4,4.3c-2.9,2.9-4.3,6.4-4.3,10.4v14.8h4.2v-10.5h21.1v10.5h4.2V97.5
			c0-4.1-1.4-7.6-4.3-10.4C537.3,84.2,533.8,82.8,529.7,82.8z M519.2,97.5c0-2.9,1-5.4,3.1-7.5c2.1-2.1,4.5-3.1,7.5-3.1
			s5.4,1,7.5,3.1c2.1,2.1,3.1,4.5,3.1,7.5H519.2z"/>
		<linearGradient id="SVGID_12_" gradientUnits="userSpaceOnUse" x1="549.639" y1="-0.6786" x2="549.639" y2="200.9148">
			<stop  offset="0" style="stop-color:#281A09"/>
			<stop  offset="4.477547e-03" style="stop-color:#38240D"/>
			<stop  offset="1.364906e-02" style="stop-color:#533513"/>
			<stop  offset="2.420006e-02" style="stop-color:#694319"/>
			<stop  offset="3.652139e-02" style="stop-color:#7A4E1D"/>
			<stop  offset="5.175335e-02" style="stop-color:#855520"/>
			<stop  offset="7.312597e-02" style="stop-color:#8C5A22"/>
			<stop  offset="0.1325" style="stop-color:#8E5B22"/>
			<stop  offset="0.2857" style="stop-color:#F1D6A3"/>
			<stop  offset="0.3949" style="stop-color:#ECC57E"/>
			<stop  offset="0.4735" style="stop-color:#E8BA65"/>
			<stop  offset="0.6005" style="stop-color:#956841"/>
			<stop  offset="0.7523" style="stop-color:#8B5E3C"/>
			<stop  offset="0.8092" style="stop-color:#E6B964"/>
			<stop  offset="1" style="stop-color:#603913"/>
		</linearGradient>
		<path class="st11" d="M549.6,108c-1.2,0-2.1,1-2.1,2.1c0,1.2,1,2.1,2.1,2.1s2.1-1,2.1-2.1C551.8,109,550.8,108,549.6,108z"/>
		<linearGradient id="SVGID_13_" gradientUnits="userSpaceOnUse" x1="81.1184" y1="-0.6786" x2="81.1184" y2="200.9148">
			<stop  offset="0" style="stop-color:#281A09"/>
			<stop  offset="4.477547e-03" style="stop-color:#38240D"/>
			<stop  offset="1.364906e-02" style="stop-color:#533513"/>
			<stop  offset="2.420006e-02" style="stop-color:#694319"/>
			<stop  offset="3.652139e-02" style="stop-color:#7A4E1D"/>
			<stop  offset="5.175335e-02" style="stop-color:#855520"/>
			<stop  offset="7.312597e-02" style="stop-color:#8C5A22"/>
			<stop  offset="0.1325" style="stop-color:#8E5B22"/>
			<stop  offset="0.2857" style="stop-color:#F1D6A3"/>
			<stop  offset="0.3949" style="stop-color:#ECC57E"/>
			<stop  offset="0.4735" style="stop-color:#E8BA65"/>
			<stop  offset="0.6005" style="stop-color:#956841"/>
			<stop  offset="0.7523" style="stop-color:#8B5E3C"/>
			<stop  offset="0.8092" style="stop-color:#E6B964"/>
			<stop  offset="1" style="stop-color:#603913"/>
		</linearGradient>
		<path class="st12" d="M91.5,108.4v-12c9-1.7,32.8-5.3,32.8-25.6c0-11-8.5-19.9-19-19.9H86h-8.6h-2.8H69v0.6c3.1,0,5.7,2.6,5.7,5.7
			V65c-7.7-2.6-15.8-2.4-23.4,0.5c-3.4,1.3-6.3,3.7-8.7,6.5c-5.4,6.2-5.9,15.4-2.1,22.6c4.1,7.5,12,12.7,19.3,16.9
			c7.1,4.1,14.3,8.6,17.5,16.6c1.2,3.1,1.9,7,1.9,10.3c0.1,6.5-3.8,13.8-9,17.7c1.6-0.5,3.2-0.9,4.7-1.5c1.3-0.5,2.7-1,3.9-1.7
			c2.6-1.4,5-3.1,7.1-5c1.2-1.1,2.3-2.3,3.4-3.5c7.3-8.7,7.7-21.9,1.4-31.3c-5.8-8.6-15.5-13.2-24.3-18c-5-2.7-10.2-5.5-13.3-10.4
			c-2.6-4.1-2.3-9.9,1.8-13.1c5.7-4.5,13.2-3.1,19.7-1.4v25.5C80.9,99.2,87,102.9,91.5,108.4z M91.5,51.4h3h1.1
			c6,0,10.9,8.7,10.9,19.3c0,11.1-4.1,19.8-15,24.7V51.4z"/>
		<linearGradient id="SVGID_14_" gradientUnits="userSpaceOnUse" x1="117.876" y1="126.9961" x2="118.0903" y2="174.7818">
			<stop  offset="0" style="stop-color:#281A09"/>
			<stop  offset="4.477547e-03" style="stop-color:#38240D"/>
			<stop  offset="1.364906e-02" style="stop-color:#533513"/>
			<stop  offset="2.420006e-02" style="stop-color:#694319"/>
			<stop  offset="3.652139e-02" style="stop-color:#7A4E1D"/>
			<stop  offset="5.175335e-02" style="stop-color:#855520"/>
			<stop  offset="7.312597e-02" style="stop-color:#8C5A22"/>
			<stop  offset="0.1325" style="stop-color:#8E5B22"/>
			<stop  offset="0.2857" style="stop-color:#F1D6A3"/>
			<stop  offset="0.3949" style="stop-color:#ECC57E"/>
			<stop  offset="0.4735" style="stop-color:#E8BA65"/>
			<stop  offset="0.6005" style="stop-color:#956841"/>
			<stop  offset="0.7523" style="stop-color:#8B5E3C"/>
			<stop  offset="0.8092" style="stop-color:#E6B964"/>
			<stop  offset="1" style="stop-color:#603913"/>
		</linearGradient>
		<path class="st13" d="M115.4,141.5c-0.3,0.1-0.4,0.4-0.3,0.6c0.1,0.3,0.4,0.4,0.6,0.3c0.1,0,2.8-0.9,4.2,2
			c0.1,0.2,0.3,0.3,0.4,0.3c0.1,0,0.1,0,0.2-0.1c0.2-0.1,0.3-0.4,0.2-0.7C119,140.3,115.6,141.4,115.4,141.5z"/>
		<linearGradient id="SVGID_15_" gradientUnits="userSpaceOnUse" x1="123.1015" y1="126.9726" x2="123.3157" y2="174.7583">
			<stop  offset="0" style="stop-color:#281A09"/>
			<stop  offset="4.477547e-03" style="stop-color:#38240D"/>
			<stop  offset="1.364906e-02" style="stop-color:#533513"/>
			<stop  offset="2.420006e-02" style="stop-color:#694319"/>
			<stop  offset="3.652139e-02" style="stop-color:#7A4E1D"/>
			<stop  offset="5.175335e-02" style="stop-color:#855520"/>
			<stop  offset="7.312597e-02" style="stop-color:#8C5A22"/>
			<stop  offset="0.1325" style="stop-color:#8E5B22"/>
			<stop  offset="0.2857" style="stop-color:#F1D6A3"/>
			<stop  offset="0.3949" style="stop-color:#ECC57E"/>
			<stop  offset="0.4735" style="stop-color:#E8BA65"/>
			<stop  offset="0.6005" style="stop-color:#956841"/>
			<stop  offset="0.7523" style="stop-color:#8B5E3C"/>
			<stop  offset="0.8092" style="stop-color:#E6B964"/>
			<stop  offset="1" style="stop-color:#603913"/>
		</linearGradient>
		<path class="st14" d="M135.2,136.6c-0.1-0.1-0.2-0.2-0.4-0.3c-0.1,0-3.2-0.5-5.5,1.6c-0.8-0.7-2.8-2-6.2-2c-3.4,0-5.4,1.4-6.2,2
			c-2.3-2.1-5.3-1.6-5.5-1.6c-0.2,0-0.3,0.1-0.4,0.3c-1.9,3.9,0.7,8,1.4,8.9c-1.5,7.3,3.8,11.5,4.4,11.9c0.7,0.8,1.8,1.4,3,1.6
			c0.4,0.4,1.5,1.5,3.3,1.5c1.8,0,2.9-1,3.3-1.5c1.2-0.1,2.3-0.8,3-1.6c0.6-0.4,5.9-4.6,4.4-11.9
			C134.5,144.6,137.1,140.5,135.2,136.6z M123.2,159.5c-0.9,0-1.5-0.3-2-0.6c0.8-0.2,1.5-0.8,2-1.6c0.5,0.8,1.2,1.4,2,1.6
			C124.7,159.2,124,159.5,123.2,159.5z M121.9,154.3c-1.2-0.1-1.4-0.6-1.5-0.7c-0.1-0.2,0-0.4,0.2-0.5c0.1-0.1,0.2-0.1,0.4-0.1
			c0.1,0,0.2,0,0.3,0.1c1.3,0.6,1.8,0.6,2,0.7c0.1,0,0.6-0.1,1.9-0.7c0.3-0.1,0.5,0,0.6,0.1c0.1,0.1,0.2,0.3,0.2,0.5
			c0,0.1-0.3,0.6-1.5,0.7c-0.1,0-0.8,0.2-1.2,0.7C122.7,154.5,122,154.3,121.9,154.3z M133,145.1c-0.1,0.1-0.1,0.3-0.1,0.4
			c1.1,5-1.2,8.4-2.8,10.1c-0.1-0.8-0.7-1.5-1.2-2c0.5-1.1-0.2-2-0.9-2.8c-0.3-0.4-0.6-0.8-0.8-1.2c-0.5-0.8-0.7-1.6-0.7-2.2
			c0.6,0.2,1.1,0.3,1.6,0.3c0.5,0,1-0.1,1.4-0.4c0.7-0.5,1-1.2,1.1-1.8c0.1,0.1,0.2,0.2,0.4,0.3c0.2,0.2,0.5,0.2,0.7,0
			c0.2-0.2,0.2-0.5,0-0.7c-0.4-0.3-0.8-0.6-1.2-0.8c0,0-0.1,0-0.1,0c-1.1-0.4-2.4-0.2-3.4,0.6c-1.2,0.9-1.9,2.8-0.4,5.3
			c0.3,0.5,0.6,0.9,0.9,1.3c0.6,0.8,0.9,1.2,0.8,1.6c-0.1-0.1-0.2-0.1-0.2-0.1c-0.2-0.1-0.5-0.1-0.7,0.2c-0.1,0.2-0.1,0.5,0.2,0.7
			c0.1,0.1,0.4,0.2,0.6,0.4c0,0,0,0,0,0c0,0,0,0,0,0c0.6,0.5,1.4,1.4,1.2,2.1c-0.1,0.2-0.2,0.4-0.3,0.6c0,0-0.1,0.1-0.1,0.1
			c-0.5,0.6-1.5,1.1-2.4,1.2c-1.1,0.1-1.9-0.5-2.4-1.6c-0.1-0.3-0.1-0.5,0-0.7c0.2-0.3,0.6-0.5,0.7-0.5c1.7-0.2,2.1-0.9,2.3-1.4
			c0-0.1,0-0.2,0-0.3c0.6-1-0.2-1.9-0.7-2.7c-0.3-0.4-0.7-0.9-0.7-1.2c-0.1-0.3-0.3-0.4-0.6-0.4c-0.3,0.1-0.4,0.3-0.4,0.6
			c0.1,0.6,0.5,1.1,0.9,1.6c0.2,0.2,0.3,0.4,0.4,0.6c-0.3-0.1-0.7-0.1-1.1,0.1c-0.9,0.4-1.4,0.5-1.5,0.6c-0.1,0-0.6-0.1-1.5-0.6
			c-0.3-0.2-0.7-0.2-1.1-0.1c0.1-0.2,0.3-0.4,0.4-0.6c0.4-0.5,0.8-1,0.9-1.6c0.1-0.3-0.1-0.5-0.4-0.6c-0.3-0.1-0.5,0.1-0.6,0.4
			c-0.1,0.3-0.4,0.8-0.7,1.2c-0.6,0.8-1.3,1.7-0.7,2.7c0,0.1,0,0.2,0,0.3c0.1,0.4,0.6,1.2,2.2,1.4c0.2,0,0.6,0.2,0.7,0.5
			c0.1,0.2,0.1,0.4,0,0.7c-0.5,1.2-1.4,1.7-2.5,1.6c-1-0.1-1.9-0.6-2.4-1.2c0,0-0.1-0.1-0.1-0.1c-0.2-0.2-0.3-0.4-0.3-0.6
			c-0.2-0.7,0.5-1.5,1.2-2.1c0,0,0,0,0,0c0,0,0,0,0,0c0.2-0.2,0.4-0.3,0.6-0.4c0.2-0.1,0.3-0.4,0.2-0.7c-0.1-0.2-0.4-0.3-0.7-0.2
			c0,0-0.1,0.1-0.2,0.1c-0.1-0.4,0.2-0.8,0.8-1.6c0.3-0.4,0.6-0.8,0.9-1.3c1.4-2.5,0.7-4.4-0.4-5.3c-1-0.8-2.3-0.9-3.4-0.6
			c0,0-0.1,0-0.1,0c-0.5,0.2-0.9,0.4-1.3,0.8c-0.2,0.2-0.2,0.5,0,0.7c0.2,0.2,0.5,0.2,0.7,0c0.1-0.1,0.2-0.2,0.4-0.3
			c0.1,0.6,0.4,1.3,1.1,1.8c0.4,0.3,0.8,0.4,1.4,0.4c0.5,0,1-0.1,1.6-0.3c0,0.7-0.2,1.4-0.7,2.2c-0.2,0.4-0.6,0.8-0.8,1.2
			c-0.7,0.8-1.4,1.8-0.9,2.8c-0.5,0.5-1.1,1.2-1.2,1.9c-1.6-1.6-3.9-5.1-2.8-10c0-0.1,0-0.3-0.1-0.4c0,0-3.1-4.1-1.5-7.8
			c0.8-0.1,3.1-0.1,4.7,1.7c0.1,0.1,0.2,0.2,0.4,0.2c0,0,0,0,0,0c0.1,0,0.3-0.1,0.4-0.2c0,0,1.9-2.1,5.9-2.1c4,0,5.9,2,5.9,2.1
			c0.1,0.1,0.2,0.2,0.4,0.2c0.1,0,0.3-0.1,0.4-0.2c1.6-1.8,3.9-1.7,4.7-1.7C136.1,141,133,145,133,145.1z M126.7,146.4
			c0.1-0.3,0.4-0.6,0.7-0.8c0.6-0.4,1.4-0.7,2.2-0.5c0,0.4-0.2,1.1-0.7,1.4C128.3,146.8,127.4,146.6,126.7,146.4z M119.6,146.4
			c-1,0.4-1.7,0.4-2.2,0.1c-0.5-0.3-0.6-1-0.7-1.4c0.8-0.2,1.6,0.1,2.2,0.5C119.3,145.8,119.5,146,119.6,146.4z"/>
		<linearGradient id="SVGID_16_" gradientUnits="userSpaceOnUse" x1="128.2965" y1="126.9493" x2="128.5108" y2="174.7351">
			<stop  offset="0" style="stop-color:#281A09"/>
			<stop  offset="4.477547e-03" style="stop-color:#38240D"/>
			<stop  offset="1.364906e-02" style="stop-color:#533513"/>
			<stop  offset="2.420006e-02" style="stop-color:#694319"/>
			<stop  offset="3.652139e-02" style="stop-color:#7A4E1D"/>
			<stop  offset="5.175335e-02" style="stop-color:#855520"/>
			<stop  offset="7.312597e-02" style="stop-color:#8C5A22"/>
			<stop  offset="0.1325" style="stop-color:#8E5B22"/>
			<stop  offset="0.2857" style="stop-color:#F1D6A3"/>
			<stop  offset="0.3949" style="stop-color:#ECC57E"/>
			<stop  offset="0.4735" style="stop-color:#E8BA65"/>
			<stop  offset="0.6005" style="stop-color:#956841"/>
			<stop  offset="0.7523" style="stop-color:#8B5E3C"/>
			<stop  offset="0.8092" style="stop-color:#E6B964"/>
			<stop  offset="1" style="stop-color:#603913"/>
		</linearGradient>
		<path class="st15" d="M130.9,141.5c0,0-3.5-1.2-5.4,2.4c-0.1,0.2,0,0.5,0.2,0.7c0.1,0,0.1,0.1,0.2,0.1c0.2,0,0.3-0.1,0.4-0.3
			c1.4-2.8,4.1-2,4.2-2c0.3,0.1,0.5,0,0.6-0.3C131.3,141.8,131.2,141.6,130.9,141.5z"/>
		<linearGradient id="SVGID_17_" gradientUnits="userSpaceOnUse" x1="80.477" y1="-0.6786" x2="80.477" y2="200.9148">
			<stop  offset="0" style="stop-color:#281A09"/>
			<stop  offset="4.477547e-03" style="stop-color:#38240D"/>
			<stop  offset="1.364906e-02" style="stop-color:#533513"/>
			<stop  offset="2.420006e-02" style="stop-color:#694319"/>
			<stop  offset="3.652139e-02" style="stop-color:#7A4E1D"/>
			<stop  offset="5.175335e-02" style="stop-color:#855520"/>
			<stop  offset="7.312597e-02" style="stop-color:#8C5A22"/>
			<stop  offset="0.1325" style="stop-color:#8E5B22"/>
			<stop  offset="0.2857" style="stop-color:#F1D6A3"/>
			<stop  offset="0.3949" style="stop-color:#ECC57E"/>
			<stop  offset="0.4735" style="stop-color:#E8BA65"/>
			<stop  offset="0.6005" style="stop-color:#956841"/>
			<stop  offset="0.7523" style="stop-color:#8B5E3C"/>
			<stop  offset="0.8092" style="stop-color:#E6B964"/>
			<stop  offset="1" style="stop-color:#603913"/>
		</linearGradient>
		<path class="st16" d="M116.7,40.3c-15.3-9.7-33.4-12.8-51-8.9C48,35.3,33,45.9,23.3,61.2c-9.7,15.3-12.8,33.4-8.9,51
			c4,17.6,14.5,32.7,29.8,42.4c15.3,9.7,33.4,12.8,51,8.9c6.2-1.4,12.1-3.6,17.5-6.5c-1.2-1.2-2.1-2.5-2.9-4
			c-4.8,2.6-10.1,4.5-15.7,5.8c-33.8,7.6-67.5-13.8-75-47.6c-7.6-33.8,13.8-67.5,47.6-75c33.8-7.6,67.5,13.8,75,47.6
			c3.9,17.3,0.2,34.7-9,48.4c1.4,0.9,2.7,2,3.7,3.2c0.4-0.6,0.8-1.1,1.1-1.7c9.7-15.3,12.8-33.4,8.9-51
			C142.6,65,132,49.9,116.7,40.3z"/>
	</g>
</g>
<g id="Capa_2">
</g>
</svg>
