<?xml version="1.0" encoding="utf-8"?>
<!-- Generator: Adobe Illustrator 24.1.1, SVG Export Plug-In . SVG Version: 6.00 Build 0)  -->
<svg version="1.1" id="Capa_1" xmlns="http://www.w3.org/2000/svg" xmlns:xlink="http://www.w3.org/1999/xlink" x="0px" y="0px"
	 viewBox="0 0 25 11" style="enable-background:new 0 0 25 11;" xml:space="preserve">
<style type="text/css">
	.st0{fill:#FFFFFF;}
	.st1{fill:#FFA350;}
</style>
<g>
	<polygon class="st0" points="4.43,5.25 3.75,7.29 3.07,5.25 2.53,5.25 2.02,8.18 2.56,8.18 2.88,6.33 3.5,8.18 3.99,8.18 
		4.61,6.33 4.93,8.18 5.46,8.18 4.97,5.25 	"/>
	<polygon class="st0" points="5.91,8.18 7.51,8.18 7.51,7.63 6.46,7.63 6.46,6.86 7.51,6.86 7.51,6.33 6.46,6.33 6.46,5.8 7.51,5.8 
		7.51,5.25 5.91,5.25 	"/>
	<polygon class="st0" points="9.81,7.18 8.56,5.25 8.03,5.25 8.03,8.18 8.58,8.18 8.58,6.26 9.83,8.18 10.37,8.18 10.37,5.25 
		9.81,5.25 	"/>
	<path class="st0" d="M12.44,5.25v1.82c0,0.2-0.01,0.33-0.04,0.4c-0.03,0.07-0.08,0.13-0.15,0.17C12.18,7.69,12.1,7.71,12,7.71
		c-0.09,0-0.17-0.02-0.24-0.06c-0.07-0.04-0.11-0.09-0.14-0.16c-0.03-0.07-0.04-0.18-0.04-0.35V5.25h-0.56V7
		c0,0.35,0.03,0.6,0.1,0.74s0.18,0.27,0.34,0.37c0.16,0.1,0.34,0.15,0.55,0.15c0.16,0,0.3-0.03,0.43-0.08
		c0.12-0.05,0.23-0.13,0.32-0.24s0.16-0.22,0.19-0.33S13,7.29,13,7V5.25H12.44z"/>
	<polygon class="st0" points="12.75,4.25 12.11,4.25 11.63,5.03 12.02,5.03 	"/>
	<rect x="17.06" y="4.67" class="st1" width="5.38" height="0.63"/>
	<rect x="17.06" y="5.93" class="st1" width="5.38" height="0.63"/>
	<rect x="17.06" y="7.2" class="st1" width="5.38" height="0.63"/>
	<path class="st0" d="M24.5,6.25c0-2.62-2.13-4.75-4.75-4.75S15,3.63,15,6.25S17.13,11,19.75,11S24.5,8.87,24.5,6.25z M19.75,10.37
		c-2.27,0-4.12-1.85-4.12-4.12s1.85-4.12,4.12-4.12s4.12,1.85,4.12,4.12S22.02,10.37,19.75,10.37z"/>
</g>
</svg>
